<svg id="svg" xmlns="http://www.w3.org/2000/svg" xmlns:xlink="http://www.w3.org/1999/xlink" width="400" height="400" viewBox="0, 0, 400,400"><g id="svgg"><path id="path0" d="M111.839 151.674 C 109.076 154.119,109.856 160.124,113.163 161.869 C 118.362 164.614,122.669 161.117,121.807 154.850 C 121.194 150.393,115.379 148.540,111.839 151.674 M178.300 154.285 C 177.143 155.571,177.225 229.137,178.385 230.186 C 179.208 230.931,186.349 230.983,187.084 230.250 C 187.258 230.076,187.490 224.217,187.600 217.228 C 187.757 207.227,187.918 204.379,188.353 203.856 C 189.128 202.923,189.804 203.597,190.378 205.877 C 190.634 206.896,191.174 208.149,191.577 208.662 C 191.980 209.174,192.435 210.260,192.588 211.075 C 192.741 211.890,193.191 212.970,193.588 213.475 C 193.985 213.980,194.433 215.050,194.584 215.854 C 194.734 216.658,195.110 217.567,195.418 217.875 C 195.727 218.184,196.180 219.193,196.427 220.118 C 196.673 221.043,197.111 222.070,197.400 222.400 C 197.689 222.730,198.139 223.810,198.400 224.800 C 198.661 225.790,199.098 226.870,199.371 227.200 C 199.645 227.530,200.093 228.368,200.367 229.062 C 200.967 230.582,201.623 230.787,205.886 230.795 C 210.255 230.802,211.019 229.327,208.540 225.673 C 208.023 224.912,207.599 223.998,207.599 223.644 C 207.598 223.290,207.265 222.456,206.859 221.790 C 206.454 221.125,205.892 219.865,205.610 218.990 C 205.329 218.116,204.874 217.130,204.600 216.800 C 204.326 216.470,203.876 215.480,203.600 214.600 C 203.324 213.720,202.873 212.730,202.597 212.400 C 202.321 212.070,201.976 211.350,201.830 210.800 C 201.560 209.779,200.272 206.944,198.486 203.441 C 197.027 200.578,197.129 197.449,198.770 194.800 C 198.974 194.470,200.248 191.860,201.600 189.000 C 202.952 186.140,204.229 183.530,204.437 183.200 C 204.646 182.870,205.087 181.970,205.418 181.200 C 205.749 180.430,206.196 179.530,206.413 179.200 C 206.629 178.870,207.001 178.150,207.239 177.600 C 207.477 177.050,208.104 175.766,208.633 174.746 L 209.595 172.892 208.697 172.651 C 203.595 171.284,199.391 172.801,198.625 176.285 C 198.471 176.988,198.021 177.976,197.624 178.481 C 197.228 178.987,196.778 179.977,196.624 180.681 C 196.471 181.386,196.014 182.382,195.611 182.895 C 195.207 183.408,194.678 184.566,194.436 185.467 C 194.193 186.369,193.730 187.326,193.408 187.594 C 193.085 187.861,192.706 188.694,192.565 189.444 C 192.425 190.193,191.997 191.210,191.616 191.703 C 191.234 192.197,190.792 193.140,190.634 193.800 C 190.076 196.122,189.259 196.978,188.369 196.172 C 187.630 195.503,187.600 194.689,187.594 175.238 C 187.591 164.107,187.428 154.748,187.234 154.441 C 186.601 153.441,179.176 153.311,178.300 154.285 M278.869 154.116 C 278.598 154.443,278.397 158.235,278.320 164.456 C 278.182 175.766,278.100 176.082,275.675 174.707 C 274.864 174.247,273.967 173.585,273.683 173.235 C 272.651 171.968,263.660 172.336,262.318 173.700 C 261.723 174.305,261.048 174.800,260.818 174.800 C 260.588 174.800,260.400 175.060,260.400 175.377 C 260.400 175.695,260.069 176.190,259.665 176.477 C 259.260 176.765,258.797 177.534,258.635 178.186 C 258.474 178.838,257.950 180.188,257.471 181.186 C 256.616 182.967,256.600 183.329,256.600 201.200 L 256.600 219.400 257.721 222.532 C 260.554 230.449,266.552 233.541,272.993 230.403 C 274.461 229.688,275.749 228.877,275.855 228.602 C 276.053 228.084,279.096 226.549,279.352 226.837 C 279.431 226.927,279.869 227.855,280.326 228.900 L 281.155 230.800 284.135 230.800 C 286.483 230.800,287.166 230.666,287.357 230.167 C 287.675 229.340,287.675 155.060,287.357 154.233 C 287.037 153.398,279.550 153.296,278.869 154.116 M43.934 158.669 C 43.385 158.815,43.334 159.068,43.643 160.123 C 43.849 160.825,44.212 163.830,44.448 166.800 C 44.685 169.770,45.020 172.380,45.193 172.600 C 45.636 173.162,46.317 177.891,46.619 182.499 C 46.760 184.644,47.019 186.488,47.196 186.597 C 47.514 186.794,48.050 190.289,48.760 196.800 C 48.964 198.670,49.395 201.370,49.719 202.800 C 50.042 204.230,50.424 207.195,50.567 209.389 C 50.711 211.583,51.098 214.171,51.427 215.141 C 51.756 216.111,52.214 219.356,52.444 222.352 C 52.813 227.152,52.984 227.978,53.886 229.300 L 54.909 230.800 58.987 230.800 C 62.819 230.800,63.091 230.746,63.504 229.900 C 64.446 227.968,65.239 224.775,65.622 221.365 C 65.843 219.404,66.362 216.540,66.776 215.000 C 67.191 213.460,67.647 210.884,67.791 209.275 C 67.936 207.666,68.317 205.603,68.638 204.691 C 68.960 203.780,69.396 201.406,69.607 199.417 C 70.009 195.635,70.627 191.589,70.975 190.461 C 71.087 190.098,71.355 188.231,71.570 186.313 C 71.785 184.395,72.217 182.338,72.529 181.742 L 73.096 180.659 73.617 181.629 C 73.904 182.163,74.363 184.400,74.638 186.600 C 74.914 188.800,75.325 191.320,75.554 192.200 C 75.782 193.080,76.165 195.916,76.405 198.501 C 76.645 201.087,77.108 203.838,77.432 204.616 C 77.757 205.393,78.201 207.958,78.419 210.315 C 78.637 212.672,79.076 215.263,79.394 216.074 C 79.712 216.884,80.168 219.505,80.407 221.898 C 81.228 230.105,81.747 230.800,87.047 230.800 C 89.943 230.800,91.229 230.647,91.546 230.265 C 92.532 229.077,93.243 225.976,93.622 221.217 C 93.842 218.458,94.297 215.120,94.633 213.800 C 94.968 212.480,95.419 209.330,95.634 206.800 C 95.850 204.270,96.209 201.300,96.434 200.200 C 97.204 196.426,97.531 194.193,97.980 189.645 C 98.228 187.140,98.605 184.765,98.818 184.366 C 99.032 183.967,99.390 181.337,99.614 178.521 C 99.838 175.704,100.298 172.320,100.635 171.000 C 101.313 168.343,102.159 159.381,101.788 158.781 C 101.659 158.571,99.592 158.400,97.195 158.400 L 92.836 158.400 92.639 159.700 C 92.531 160.415,92.336 163.070,92.206 165.600 C 92.076 168.130,91.777 171.010,91.541 172.000 C 91.306 172.990,90.946 176.320,90.742 179.400 C 90.538 182.480,90.101 186.980,89.771 189.400 C 88.631 197.773,88.457 199.824,88.428 205.256 C 88.384 213.705,86.384 215.343,85.622 207.553 C 85.421 205.489,84.968 202.458,84.616 200.818 C 84.264 199.178,83.816 196.285,83.620 194.390 C 83.424 192.495,82.984 190.057,82.643 188.972 C 82.301 187.888,81.839 185.275,81.617 183.166 C 81.394 181.058,80.949 178.588,80.627 177.678 C 80.306 176.768,79.921 174.443,79.770 172.511 C 79.620 170.580,79.225 168.190,78.893 167.200 C 78.561 166.210,78.082 163.870,77.830 162.000 L 77.371 158.600 73.319 158.600 C 68.463 158.600,68.980 158.124,68.446 163.083 C 68.205 165.329,67.743 167.849,67.420 168.683 C 67.097 169.517,66.644 171.953,66.415 174.095 C 66.185 176.237,65.735 178.667,65.415 179.495 C 65.094 180.323,64.643 182.765,64.412 184.923 C 64.180 187.081,63.741 189.444,63.436 190.175 C 63.131 190.906,62.677 193.401,62.427 195.719 C 62.178 198.037,61.705 200.965,61.377 202.225 C 61.049 203.485,60.673 205.885,60.543 207.558 C 60.272 211.025,59.462 212.837,58.581 211.946 C 58.195 211.556,57.927 209.170,57.644 203.600 C 57.425 199.310,56.975 194.540,56.644 193.000 C 56.312 191.460,55.855 187.410,55.628 184.000 C 55.400 180.590,55.037 177.194,54.821 176.452 C 54.465 175.229,54.008 170.787,53.364 162.276 C 53.148 159.422,53.042 159.120,52.138 158.776 C 51.160 158.405,45.225 158.327,43.934 158.669 M301.067 158.667 C 300.411 159.322,300.772 230.304,301.433 230.557 C 303.287 231.269,309.056 230.805,309.930 229.874 L 310.800 228.948 310.800 193.921 L 310.800 158.893 309.900 158.652 C 308.672 158.323,301.398 158.335,301.067 158.667 M324.667 158.667 C 324.335 158.999,324.320 228.662,324.652 229.900 C 324.975 231.105,331.854 231.289,333.019 230.124 C 333.869 229.274,333.669 196.589,332.779 191.000 C 332.482 189.133,332.396 187.134,332.572 186.201 L 332.874 184.601 333.494 185.801 C 333.835 186.460,334.605 187.564,335.205 188.254 C 335.872 189.021,336.401 190.214,336.567 191.322 C 336.717 192.319,337.090 193.343,337.398 193.598 C 337.705 193.853,338.165 195.070,338.421 196.303 C 338.677 197.535,339.118 198.775,339.400 199.057 C 339.682 199.339,340.136 200.522,340.407 201.685 C 340.679 202.848,341.144 204.078,341.439 204.418 C 341.735 204.759,342.198 206.019,342.468 207.218 C 342.738 208.418,343.267 209.850,343.642 210.400 C 344.018 210.950,344.441 212.080,344.583 212.912 C 344.725 213.743,345.174 215.003,345.582 215.712 C 345.990 216.420,346.445 217.755,346.593 218.677 C 346.741 219.599,347.103 220.553,347.396 220.797 C 347.690 221.040,348.148 222.176,348.416 223.320 C 348.683 224.464,349.135 225.670,349.421 226.000 C 349.706 226.330,350.150 227.434,350.406 228.453 C 350.931 230.542,351.524 230.787,356.071 230.796 C 359.953 230.803,359.618 234.389,359.502 194.069 L 359.400 158.600 355.000 158.600 L 350.600 158.600 350.600 177.400 C 350.600 187.740,350.723 198.270,350.873 200.800 C 351.023 203.330,350.998 205.040,350.818 204.600 C 350.638 204.160,349.947 203.402,349.283 202.916 C 348.429 202.290,347.997 201.567,347.807 200.439 C 347.659 199.563,347.193 198.171,346.772 197.346 C 346.351 196.520,345.887 195.206,345.741 194.426 C 345.594 193.645,345.053 192.213,344.537 191.244 C 344.022 190.274,343.594 189.103,343.587 188.640 C 343.581 188.178,343.132 186.900,342.591 185.800 C 342.050 184.700,341.600 183.440,341.591 183.000 C 341.582 182.560,341.132 181.300,340.591 180.200 C 340.050 179.100,339.605 177.840,339.602 177.400 C 339.599 176.960,339.248 176.028,338.822 175.329 C 338.396 174.630,337.925 173.370,337.775 172.529 C 337.625 171.688,337.189 170.460,336.805 169.800 C 336.421 169.140,335.897 167.728,335.639 166.663 C 335.381 165.597,334.914 164.335,334.601 163.858 C 334.288 163.380,333.834 162.065,333.592 160.935 C 333.254 159.361,332.946 158.826,332.275 158.646 C 331.069 158.322,324.995 158.339,324.667 158.667 M111.900 172.687 L 110.800 172.853 110.800 201.362 L 110.800 229.872 111.819 230.336 C 113.773 231.226,118.936 230.933,119.930 229.874 L 120.800 228.948 120.800 200.924 L 120.800 172.900 119.550 172.650 C 118.227 172.385,113.747 172.407,111.900 172.687 M134.100 172.682 L 133.200 172.856 133.200 200.958 L 133.200 229.061 134.126 229.930 C 135.150 230.892,140.116 231.192,142.159 230.416 L 143.170 230.031 143.285 206.438 L 143.400 182.844 144.771 181.429 C 147.260 178.862,151.433 178.451,153.547 180.565 L 154.600 181.618 154.712 205.750 L 154.824 229.882 155.831 230.341 C 157.800 231.239,162.939 230.929,163.951 229.852 L 164.841 228.905 164.687 205.152 C 164.503 176.886,164.658 178.085,160.692 174.102 C 157.266 170.660,149.067 171.851,144.536 176.449 L 142.872 178.137 142.072 176.822 C 141.631 176.098,141.161 174.919,141.027 174.201 C 140.714 172.535,137.979 171.935,134.100 172.682 M226.418 172.674 C 226.098 172.810,225.479 173.254,225.043 173.661 C 224.606 174.067,224.050 174.400,223.806 174.400 C 223.215 174.400,220.699 177.119,220.012 178.500 C 219.711 179.105,219.328 179.600,219.161 179.600 C 218.994 179.600,218.647 180.635,218.392 181.900 C 218.136 183.165,217.628 184.650,217.263 185.200 C 216.674 186.088,216.600 187.940,216.600 201.800 C 216.600 215.660,216.674 217.512,217.263 218.400 C 217.628 218.950,218.136 220.435,218.392 221.700 C 218.647 222.965,218.996 224.000,219.165 224.000 C 219.335 224.000,219.817 224.654,220.237 225.453 C 220.943 226.797,223.007 229.200,223.456 229.200 C 223.562 229.200,224.673 229.695,225.925 230.300 C 228.749 231.665,235.406 231.925,237.200 230.739 C 237.750 230.376,238.763 229.961,239.451 229.818 C 243.334 229.010,246.400 223.212,246.400 216.675 C 246.400 214.445,246.085 214.302,241.595 214.481 L 238.600 214.600 238.496 216.800 C 238.342 220.076,238.114 220.703,236.514 222.257 C 230.777 227.829,226.000 222.254,226.000 209.984 C 226.000 203.049,225.069 203.639,236.232 203.508 L 245.400 203.400 246.117 200.600 C 248.631 190.778,246.911 179.279,242.348 175.393 C 239.095 172.622,239.042 172.607,232.800 172.513 C 229.610 172.466,226.738 172.538,226.418 172.674 M234.800 179.710 C 237.730 181.169,239.944 192.935,237.832 195.824 C 237.081 196.852,227.811 197.005,226.612 196.010 C 225.796 195.333,225.867 185.731,226.695 184.721 C 226.930 184.434,227.329 183.427,227.581 182.482 C 228.335 179.665,231.934 178.282,234.800 179.710 M276.469 181.281 C 278.449 183.598,278.400 183.066,278.400 202.098 L 278.400 218.896 277.314 220.562 C 276.075 222.465,273.358 224.400,271.927 224.400 C 270.858 224.400,267.608 222.203,267.586 221.465 C 267.579 221.209,267.225 220.280,266.800 219.400 C 265.536 216.784,265.593 186.122,266.867 183.074 C 268.355 179.515,268.944 179.152,272.800 179.413 C 274.822 179.549,275.119 179.701,276.469 181.281 " stroke="none" fill="#f0f1fa" fill-rule="evenodd"></path><path id="path1" d="M55.680 117.680 C 55.416 117.944,55.200 118.394,55.200 118.680 C 55.200 119.080,53.997 119.200,49.981 119.200 C 44.956 119.200,44.728 119.236,43.854 120.180 C 43.086 121.008,42.514 121.179,40.173 121.280 C 37.645 121.389,37.389 121.479,37.272 122.300 C 37.160 123.089,36.910 123.200,35.242 123.200 C 33.730 123.200,33.147 123.405,32.400 124.200 C 31.828 124.809,31.019 125.200,30.330 125.200 C 29.398 125.200,29.200 125.371,29.200 126.178 C 29.200 127.061,29.015 127.168,27.300 127.278 C 25.679 127.382,25.381 127.532,25.272 128.300 C 25.180 128.951,24.876 129.200,24.172 129.200 C 23.402 129.200,23.200 129.408,23.200 130.200 C 23.200 131.000,23.000 131.200,22.200 131.200 C 21.428 131.200,21.200 131.406,21.200 132.105 C 21.200 132.660,20.852 133.163,20.300 133.405 L 19.400 133.800 19.299 200.300 L 19.198 266.800 20.199 266.800 C 21.000 266.800,21.200 267.000,21.200 267.800 C 21.200 268.600,21.400 268.800,22.200 268.800 C 23.000 268.800,23.200 269.000,23.200 269.800 C 23.200 270.600,23.400 270.800,24.200 270.800 C 25.000 270.800,25.200 271.000,25.200 271.800 C 25.200 272.623,25.395 272.801,26.300 272.807 C 26.945 272.811,27.790 273.225,28.342 273.807 C 28.860 274.353,29.672 274.800,30.147 274.800 C 30.659 274.800,31.171 275.167,31.405 275.700 C 31.750 276.486,32.143 276.615,34.500 276.718 C 37.068 276.831,37.200 276.885,37.200 277.818 C 37.200 278.773,37.282 278.800,40.200 278.800 C 43.133 278.800,43.200 278.822,43.200 279.800 L 43.200 280.800 48.154 280.800 C 52.998 280.800,53.123 280.822,53.764 281.801 L 54.419 282.801 200.310 282.701 L 346.200 282.600 346.595 281.700 C 346.973 280.837,347.192 280.800,351.895 280.800 L 356.800 280.800 356.800 279.800 C 356.800 278.822,356.867 278.800,359.800 278.800 C 362.719 278.800,362.800 278.773,362.800 277.818 C 362.800 276.875,362.919 276.830,365.700 276.718 C 368.361 276.610,368.611 276.526,368.728 275.700 C 368.831 274.971,369.110 274.800,370.199 274.800 C 371.477 274.800,372.800 273.972,372.800 273.171 C 372.800 272.967,373.250 272.800,373.800 272.800 C 374.600 272.800,374.800 272.600,374.800 271.800 C 374.800 271.000,375.000 270.800,375.800 270.800 C 376.600 270.800,376.800 270.600,376.800 269.800 C 376.800 269.000,377.000 268.800,377.800 268.800 C 378.600 268.800,378.800 268.600,378.800 267.800 C 378.800 267.000,379.000 266.800,379.801 266.800 L 380.802 266.800 380.701 200.100 L 380.600 133.400 379.700 133.272 C 379.049 133.180,378.800 132.876,378.800 132.172 C 378.800 131.402,378.592 131.200,377.800 131.200 C 377.000 131.200,376.800 131.000,376.800 130.200 C 376.800 129.400,376.600 129.200,375.800 129.200 C 375.006 129.200,374.800 128.999,374.800 128.222 C 374.800 127.339,374.615 127.232,372.900 127.122 C 371.279 127.018,370.981 126.868,370.872 126.100 C 370.776 125.424,370.477 125.198,369.672 125.193 C 369.057 125.189,368.199 124.763,367.658 124.193 C 366.905 123.399,366.323 123.200,364.758 123.200 C 362.936 123.200,362.800 123.130,362.800 122.200 C 362.800 121.225,362.727 121.200,359.895 121.200 C 357.266 121.200,356.952 121.114,356.595 120.300 C 356.215 119.435,355.976 119.396,350.500 119.289 C 345.243 119.187,344.800 119.120,344.800 118.432 C 344.800 118.021,344.515 117.576,344.167 117.443 C 342.845 116.935,56.189 117.171,55.680 117.680 M118.909 149.123 C 121.079 149.694,122.353 150.649,122.620 151.905 C 122.748 152.507,123.111 153.478,123.426 154.062 C 124.167 155.433,124.160 157.635,123.413 158.624 C 123.090 159.051,122.820 159.805,122.813 160.300 C 122.806 160.795,122.395 161.569,121.900 162.019 C 121.405 162.469,120.608 163.216,120.130 163.679 C 118.866 164.900,113.492 164.863,112.240 163.624 C 111.778 163.166,110.989 162.479,110.486 162.096 C 107.137 159.546,108.938 149.971,112.886 149.340 C 113.728 149.205,114.525 148.921,114.656 148.709 C 114.905 148.307,116.341 148.447,118.909 149.123 M187.475 151.914 C 188.674 152.677,188.801 154.756,188.840 174.326 C 188.874 191.849,188.944 193.992,189.431 192.441 C 189.735 191.473,190.241 190.393,190.555 190.041 C 190.869 189.688,191.324 188.656,191.566 187.747 C 191.808 186.837,192.254 185.887,192.558 185.634 C 192.862 185.382,193.316 184.364,193.565 183.372 C 193.815 182.379,194.268 181.472,194.571 181.356 C 194.874 181.240,195.242 180.482,195.390 179.672 C 195.538 178.863,195.961 177.750,196.330 177.200 C 196.698 176.650,197.270 175.390,197.600 174.400 C 198.543 171.571,204.469 170.104,209.504 171.453 C 211.107 171.883,211.194 174.808,209.648 176.289 C 209.240 176.680,208.785 177.670,208.637 178.489 C 208.489 179.307,208.043 180.207,207.645 180.489 C 207.247 180.770,206.797 181.670,206.645 182.489 C 206.493 183.307,206.043 184.207,205.645 184.489 C 205.247 184.770,204.795 185.679,204.641 186.509 C 204.487 187.339,204.009 188.237,203.580 188.505 C 203.151 188.773,202.800 189.282,202.800 189.637 C 202.800 190.864,201.919 192.800,201.361 192.800 C 201.052 192.800,200.800 193.133,200.800 193.540 C 200.800 194.850,199.939 196.800,199.361 196.800 C 198.407 196.800,198.608 200.902,199.606 201.805 C 200.049 202.207,200.521 203.216,200.654 204.049 C 200.787 204.882,201.231 205.866,201.640 206.237 C 202.050 206.607,202.500 207.560,202.642 208.355 C 202.783 209.150,203.222 210.160,203.617 210.600 C 204.012 211.040,204.464 212.100,204.622 212.955 C 204.780 213.810,205.235 214.835,205.632 215.232 C 206.030 215.630,206.480 216.620,206.632 217.432 C 206.785 218.245,207.235 219.235,207.632 219.632 C 208.030 220.030,208.480 221.020,208.632 221.832 C 208.785 222.645,209.235 223.635,209.632 224.032 C 210.030 224.430,210.480 225.420,210.632 226.232 C 210.785 227.045,211.245 228.045,211.655 228.455 C 214.309 231.109,212.233 232.445,205.660 232.311 L 200.200 232.200 199.537 230.872 C 199.172 230.142,198.610 229.242,198.288 228.872 C 197.965 228.503,197.577 227.505,197.424 226.655 C 197.272 225.805,196.821 224.759,196.422 224.331 C 196.023 223.903,195.593 222.912,195.466 222.127 C 195.338 221.343,194.940 220.376,194.581 219.979 C 194.222 219.582,193.758 218.500,193.549 217.573 C 193.341 216.647,192.838 215.466,192.431 214.948 C 192.024 214.431,191.565 213.330,191.411 212.503 C 191.258 211.677,190.874 210.712,190.558 210.359 C 190.242 210.007,189.735 208.927,189.431 207.959 C 188.933 206.372,188.875 207.371,188.834 218.200 C 188.776 233.454,189.364 232.166,182.389 232.315 C 174.690 232.478,175.600 237.836,175.600 192.329 C 175.600 152.348,175.585 152.704,177.326 152.003 C 178.400 151.570,186.818 151.497,187.475 151.914 M288.371 152.654 C 289.503 154.093,289.701 229.907,288.577 231.511 C 287.563 232.959,280.319 232.859,279.353 231.384 C 278.365 229.877,277.317 229.425,276.562 230.181 C 276.221 230.521,275.686 230.800,275.371 230.800 C 275.057 230.800,274.800 230.989,274.800 231.220 C 274.800 233.004,264.197 233.450,262.326 231.745 C 261.817 231.280,260.995 230.691,260.500 230.436 C 260.005 230.181,259.600 229.715,259.600 229.400 C 259.600 229.085,259.254 228.643,258.832 228.417 C 258.410 228.191,257.847 227.330,257.581 226.503 C 257.316 225.676,256.833 224.695,256.507 224.322 C 253.924 221.361,253.852 182.813,256.423 179.140 C 256.831 178.557,257.283 177.608,257.428 177.031 C 257.573 176.454,257.998 175.761,258.372 175.491 C 258.746 175.221,259.172 174.681,259.317 174.291 C 259.463 173.901,259.901 173.460,260.291 173.310 C 260.681 173.161,261.270 172.730,261.600 172.352 C 261.930 171.973,263.010 171.481,264.000 171.257 C 264.990 171.034,266.508 170.671,267.374 170.451 C 268.529 170.157,269.274 170.187,270.174 170.562 C 272.716 171.623,275.665 172.143,276.006 171.591 C 276.179 171.310,276.223 167.551,276.103 163.237 C 275.788 151.897,275.917 151.682,283.071 151.632 C 287.441 151.601,287.561 151.624,288.371 152.654 M53.887 157.713 C 54.444 158.269,54.655 159.364,54.850 162.713 C 54.987 165.071,55.382 168.080,55.727 169.400 C 56.072 170.720,56.526 174.770,56.736 178.400 C 56.946 182.030,57.402 186.080,57.750 187.400 C 58.113 188.774,58.507 192.620,58.673 196.400 C 58.910 201.777,59.027 202.667,59.308 201.200 C 59.497 200.210,59.996 198.500,60.416 197.400 C 60.836 196.300,61.347 193.590,61.551 191.379 C 61.756 189.167,62.221 186.647,62.585 185.779 C 62.948 184.910,63.411 182.331,63.612 180.046 C 63.825 177.634,64.227 175.513,64.572 174.987 C 64.920 174.456,65.280 172.533,65.442 170.341 C 65.594 168.283,65.987 165.880,66.316 165.000 C 66.644 164.120,67.118 162.143,67.368 160.606 C 67.940 157.102,68.404 156.814,73.500 156.806 C 77.561 156.799,78.800 157.391,78.800 159.339 C 78.800 159.855,79.089 160.856,79.442 161.564 C 80.116 162.915,80.765 166.971,80.787 169.974 C 80.794 170.949,81.150 172.479,81.577 173.374 C 82.101 174.471,82.436 176.302,82.608 179.000 C 82.762 181.428,83.151 183.708,83.599 184.801 C 84.033 185.859,84.455 188.253,84.622 190.601 C 84.778 192.801,85.152 195.086,85.453 195.681 C 85.754 196.275,86.254 198.165,86.564 199.881 C 86.875 201.596,87.151 202.460,87.178 201.800 C 87.598 191.623,88.054 185.872,88.575 184.160 C 88.956 182.905,89.347 179.131,89.589 174.360 C 89.806 170.092,90.176 165.880,90.411 165.000 C 90.647 164.120,90.993 162.150,91.182 160.622 C 91.652 156.813,91.820 156.720,97.936 156.875 C 104.491 157.041,105.512 158.112,103.361 162.561 C 103.053 163.200,102.797 164.820,102.793 166.161 C 102.781 170.141,102.092 175.533,101.423 176.873 C 101.065 177.591,100.799 179.161,100.797 180.561 C 100.792 184.315,100.049 189.944,99.392 191.216 C 99.066 191.845,98.797 193.404,98.793 194.680 C 98.781 198.555,98.084 203.950,97.423 205.273 C 97.067 205.987,96.797 207.568,96.793 208.961 C 96.782 212.809,96.108 218.245,95.463 219.684 C 95.122 220.447,94.772 222.933,94.631 225.600 C 94.280 232.218,94.331 232.168,87.758 232.315 C 80.134 232.486,79.909 232.311,79.445 225.871 C 79.305 223.931,78.912 221.804,78.572 221.145 C 78.207 220.440,77.792 217.966,77.562 215.127 C 77.328 212.234,76.919 209.817,76.540 209.084 C 76.178 208.385,75.761 206.052,75.564 203.631 C 75.372 201.274,74.861 198.386,74.410 197.110 C 73.844 195.509,73.593 193.764,73.577 191.310 C 73.533 184.673,72.984 184.022,72.641 190.200 C 72.424 194.109,72.109 196.344,71.597 197.600 C 71.171 198.647,70.760 200.991,70.614 203.200 C 70.457 205.590,70.089 207.593,69.622 208.600 C 69.146 209.627,68.786 211.632,68.617 214.200 C 68.450 216.741,68.086 218.783,67.618 219.800 C 67.171 220.774,66.782 222.854,66.626 225.115 C 66.148 232.022,65.732 232.400,58.613 232.400 C 51.884 232.400,51.854 232.375,51.458 226.525 C 51.312 224.366,50.904 221.790,50.550 220.800 C 50.196 219.810,49.749 216.660,49.556 213.800 C 49.351 210.759,48.939 207.936,48.563 207.000 C 48.180 206.044,47.775 203.201,47.557 199.940 C 47.337 196.642,46.941 193.877,46.556 192.957 C 46.175 192.044,45.778 189.304,45.566 186.119 C 45.356 182.959,44.957 180.195,44.583 179.302 C 44.207 178.407,43.805 175.608,43.586 172.372 C 43.369 169.152,42.964 166.333,42.592 165.442 C 41.571 162.998,41.354 159.035,42.173 157.785 L 42.859 156.738 48.017 156.869 C 52.315 156.978,53.293 157.119,53.887 157.713 M311.740 157.549 C 312.756 158.394,312.754 230.546,311.738 231.669 C 310.791 232.715,300.808 232.774,299.949 231.739 C 298.914 230.491,299.158 158.115,300.200 157.343 C 301.277 156.545,310.736 156.714,311.740 157.549 M334.042 157.952 C 334.459 158.467,334.800 159.381,334.800 159.982 C 334.800 160.584,335.149 161.392,335.576 161.779 C 336.065 162.221,336.451 163.273,336.620 164.618 C 336.782 165.916,337.176 167.017,337.626 167.423 C 338.032 167.791,338.488 168.926,338.639 169.946 C 338.789 170.966,339.238 172.218,339.636 172.728 C 340.034 173.239,340.484 174.499,340.636 175.528 C 340.788 176.558,341.238 177.818,341.636 178.328 C 342.034 178.839,342.484 180.099,342.636 181.128 C 342.788 182.158,343.238 183.418,343.636 183.928 C 344.034 184.439,344.480 185.699,344.627 186.728 C 344.775 187.758,345.233 188.970,345.645 189.423 C 346.057 189.875,346.513 191.135,346.657 192.223 C 346.802 193.310,347.156 194.340,347.445 194.511 C 348.059 194.876,348.795 197.299,348.798 198.967 C 348.799 199.608,348.896 200.038,349.013 199.920 C 349.130 199.803,349.217 190.339,349.207 178.888 C 349.185 154.277,348.523 156.800,355.006 156.800 C 361.518 156.800,360.800 152.118,360.800 194.600 C 360.800 237.088,361.521 232.400,354.988 232.400 L 350.421 232.400 349.810 231.220 C 349.475 230.571,349.200 229.844,349.200 229.604 C 349.200 229.364,348.858 228.680,348.440 228.084 C 348.022 227.488,347.568 226.222,347.431 225.271 C 347.293 224.320,346.842 223.060,346.428 222.471 C 346.014 221.882,345.555 220.700,345.409 219.845 C 345.263 218.990,344.813 217.820,344.409 217.245 C 344.005 216.670,343.559 215.520,343.417 214.688 C 343.275 213.857,342.828 212.597,342.424 211.888 C 342.019 211.180,341.564 209.890,341.411 209.021 C 341.259 208.153,340.789 207.004,340.367 206.467 C 339.945 205.931,339.600 205.020,339.600 204.443 C 339.600 203.866,339.165 202.576,338.633 201.578 C 338.102 200.579,337.539 199.050,337.383 198.181 C 337.226 197.311,336.827 196.289,336.496 195.909 C 336.164 195.529,335.665 194.179,335.387 192.909 C 334.955 190.931,334.876 193.473,334.841 210.611 C 334.805 228.030,334.719 230.737,334.177 231.511 C 333.280 232.792,324.290 232.890,323.614 231.626 C 322.791 230.089,323.067 158.410,323.899 157.491 C 325.024 156.248,332.954 156.609,334.042 157.952 M157.380 170.771 C 157.611 170.956,158.430 171.236,159.200 171.394 C 161.147 171.791,164.313 174.918,164.655 176.782 C 164.799 177.562,165.250 178.629,165.658 179.154 C 166.743 180.549,166.819 230.473,165.738 231.669 C 164.892 232.604,154.816 232.784,154.064 231.877 C 153.765 231.517,153.594 223.812,153.515 207.177 C 153.381 178.910,153.685 180.835,149.347 180.813 C 147.195 180.802,146.867 180.902,146.676 181.630 C 146.557 182.086,146.086 182.557,145.630 182.676 C 144.802 182.893,144.800 182.950,144.794 206.547 C 144.787 235.164,145.533 232.163,138.389 232.315 C 130.736 232.477,131.600 236.385,131.600 201.605 C 131.600 167.729,130.942 171.411,136.994 171.405 C 141.688 171.399,142.276 171.681,142.665 174.119 C 142.913 175.666,142.951 175.702,143.562 174.957 C 144.704 173.566,147.765 171.653,149.283 171.382 C 150.099 171.236,151.449 170.866,152.283 170.558 C 153.799 169.999,156.560 170.115,157.380 170.771 M235.492 170.568 C 236.321 170.881,237.720 171.254,238.600 171.398 C 241.726 171.909,246.101 175.985,246.682 178.928 C 246.821 179.628,247.308 180.710,247.767 181.334 C 249.410 183.570,248.908 201.476,247.142 203.600 L 246.311 204.600 237.095 204.721 L 227.878 204.843 228.137 211.121 C 228.505 220.028,228.635 220.689,230.154 221.383 C 233.993 223.138,236.709 221.187,237.232 216.299 C 237.620 212.678,238.171 212.302,242.852 212.465 C 248.052 212.646,248.402 212.956,248.394 217.362 C 248.390 219.449,248.183 220.955,247.810 221.600 C 246.949 223.089,246.885 223.266,246.605 224.944 C 246.428 226.002,246.103 226.552,245.574 226.691 C 245.148 226.802,244.800 227.237,244.800 227.657 C 244.800 228.103,244.384 228.578,243.800 228.800 C 243.250 229.009,242.800 229.373,242.800 229.609 C 242.800 229.845,242.305 230.256,241.700 230.521 C 241.095 230.786,240.068 231.362,239.418 231.801 C 237.518 233.084,226.096 233.006,224.706 231.700 C 224.180 231.205,223.550 230.800,223.308 230.800 C 222.055 230.800,217.897 225.625,217.362 223.400 C 217.203 222.740,216.789 221.761,216.442 221.225 C 214.363 218.018,214.393 184.554,216.476 182.092 C 216.798 181.712,217.283 180.625,217.553 179.679 C 217.824 178.732,218.305 177.858,218.622 177.736 C 218.940 177.614,219.200 177.264,219.200 176.957 C 219.200 176.322,222.192 173.200,222.800 173.200 C 223.020 173.200,223.541 172.859,223.958 172.442 C 224.374 172.026,225.499 171.555,226.458 171.397 C 227.416 171.239,228.380 170.967,228.600 170.793 C 229.660 169.954,233.528 169.828,235.492 170.568 M121.768 171.973 C 122.758 172.795,122.728 230.574,121.738 231.669 C 120.876 232.621,110.815 232.782,110.046 231.856 C 109.718 231.460,109.623 223.207,109.697 201.560 L 109.800 171.808 111.000 171.528 C 113.031 171.054,121.060 171.386,121.768 171.973 M229.701 181.762 C 227.906 183.656,227.325 195.015,229.001 195.436 C 230.160 195.727,235.832 195.502,236.183 195.151 C 237.295 194.038,236.175 183.057,234.777 181.373 C 233.968 180.397,230.762 180.643,229.701 181.762 M268.880 182.300 C 268.072 184.083,267.860 217.929,268.642 220.200 C 269.416 222.445,274.379 222.580,275.489 220.386 C 276.204 218.973,276.219 184.532,275.505 182.919 C 274.258 180.103,270.053 179.711,268.880 182.300 " stroke="none" fill="#1434d4" fill-rule="evenodd"></path><path id="path2" d="M114.656 148.709 C 114.525 148.921,113.728 149.205,112.886 149.340 C 108.938 149.971,107.137 159.546,110.486 162.096 C 110.989 162.479,111.778 163.166,112.240 163.624 C 113.492 164.863,118.866 164.900,120.130 163.679 C 120.608 163.216,121.405 162.469,121.900 162.019 C 122.395 161.569,122.806 160.795,122.813 160.300 C 122.820 159.805,123.090 159.051,123.413 158.624 C 124.160 157.635,124.167 155.433,123.426 154.062 C 123.111 153.478,122.748 152.507,122.620 151.905 C 122.492 151.303,121.944 150.520,121.403 150.165 C 119.712 149.057,115.061 148.054,114.656 148.709 M120.441 150.514 C 123.776 152.757,123.669 159.927,120.261 162.526 C 115.232 166.362,109.800 163.152,109.800 156.344 L 109.800 152.340 111.294 150.970 C 113.255 149.172,118.086 148.931,120.441 150.514 M177.326 152.003 C 175.585 152.704,175.600 152.348,175.600 192.329 C 175.600 237.836,174.690 232.478,182.389 232.315 C 189.364 232.166,188.776 233.454,188.834 218.200 C 188.875 207.371,188.933 206.372,189.431 207.959 C 189.735 208.927,190.242 210.007,190.558 210.359 C 190.874 210.712,191.258 211.677,191.411 212.503 C 191.565 213.330,192.024 214.431,192.431 214.948 C 192.838 215.466,193.341 216.647,193.549 217.573 C 193.758 218.500,194.222 219.582,194.581 219.979 C 194.940 220.376,195.338 221.343,195.466 222.127 C 195.593 222.912,196.023 223.903,196.422 224.331 C 196.821 224.759,197.272 225.805,197.424 226.655 C 197.577 227.505,197.965 228.503,198.288 228.872 C 198.610 229.242,199.172 230.142,199.537 230.872 L 200.200 232.200 205.660 232.311 C 212.233 232.445,214.309 231.109,211.655 228.455 C 211.245 228.045,210.785 227.045,210.632 226.232 C 210.480 225.420,210.030 224.430,209.632 224.032 C 209.235 223.635,208.785 222.645,208.632 221.832 C 208.480 221.020,208.030 220.030,207.632 219.632 C 207.235 219.235,206.785 218.245,206.632 217.432 C 206.480 216.620,206.030 215.630,205.632 215.232 C 205.235 214.835,204.780 213.810,204.622 212.955 C 204.464 212.100,204.012 211.040,203.617 210.600 C 203.222 210.160,202.783 209.150,202.642 208.355 C 202.500 207.560,202.050 206.607,201.640 206.237 C 201.231 205.866,200.787 204.882,200.654 204.049 C 200.521 203.216,200.049 202.207,199.606 201.805 C 198.608 200.902,198.407 196.800,199.361 196.800 C 199.939 196.800,200.800 194.850,200.800 193.540 C 200.800 193.133,201.052 192.800,201.361 192.800 C 201.919 192.800,202.800 190.864,202.800 189.637 C 202.800 189.282,203.151 188.773,203.580 188.505 C 204.009 188.237,204.487 187.339,204.641 186.509 C 204.795 185.679,205.247 184.770,205.645 184.489 C 206.043 184.207,206.493 183.307,206.645 182.489 C 206.797 181.670,207.247 180.770,207.645 180.489 C 208.043 180.207,208.489 179.307,208.637 178.489 C 208.785 177.670,209.240 176.680,209.648 176.289 C 211.194 174.808,211.107 171.883,209.504 171.453 C 204.469 170.104,198.543 171.571,197.600 174.400 C 197.270 175.390,196.698 176.650,196.330 177.200 C 195.961 177.750,195.538 178.863,195.390 179.672 C 195.242 180.482,194.874 181.240,194.571 181.356 C 194.268 181.472,193.815 182.379,193.565 183.372 C 193.316 184.364,192.862 185.382,192.558 185.634 C 192.254 185.887,191.808 186.837,191.566 187.747 C 191.324 188.656,190.869 189.688,190.555 190.041 C 190.241 190.393,189.735 191.473,189.431 192.441 C 188.944 193.992,188.874 191.849,188.840 174.326 C 188.801 154.756,188.674 152.677,187.475 151.914 C 186.818 151.497,178.400 151.570,177.326 152.003 M278.089 151.868 C 276.306 152.585,275.875 155.051,276.103 163.237 C 276.223 167.551,276.179 171.310,276.006 171.591 C 275.665 172.143,272.716 171.623,270.174 170.562 C 269.274 170.187,268.529 170.157,267.374 170.451 C 266.508 170.671,264.990 171.034,264.000 171.257 C 263.010 171.481,261.930 171.973,261.600 172.352 C 261.270 172.730,260.681 173.161,260.291 173.310 C 259.901 173.460,259.463 173.901,259.317 174.291 C 259.172 174.681,258.746 175.221,258.372 175.491 C 257.998 175.761,257.573 176.454,257.428 177.031 C 257.283 177.608,256.831 178.557,256.423 179.140 C 253.852 182.813,253.924 221.361,256.507 224.322 C 256.833 224.695,257.316 225.676,257.581 226.503 C 257.847 227.330,258.410 228.191,258.832 228.417 C 259.254 228.643,259.600 229.085,259.600 229.400 C 259.600 229.715,260.005 230.181,260.500 230.436 C 260.995 230.691,261.817 231.280,262.326 231.745 C 264.197 233.450,274.800 233.004,274.800 231.220 C 274.800 230.989,275.057 230.800,275.371 230.800 C 275.686 230.800,276.221 230.521,276.562 230.181 C 277.317 229.425,278.365 229.877,279.353 231.384 C 280.319 232.859,287.563 232.959,288.577 231.511 C 289.701 229.907,289.503 154.093,288.371 152.654 C 287.565 151.630,280.101 151.060,278.089 151.868 M186.675 152.646 C 188.295 153.080,188.400 154.412,188.406 174.760 C 188.412 194.429,188.560 196.583,189.703 193.725 C 190.264 192.324,191.583 189.447,194.837 182.525 C 195.476 181.164,196.000 179.842,196.000 179.587 C 196.000 179.332,196.335 178.646,196.744 178.062 C 197.154 177.478,197.704 176.336,197.967 175.525 C 199.035 172.231,199.482 172.000,204.780 172.000 C 210.198 172.000,210.922 172.326,209.846 174.279 C 209.507 174.896,208.940 176.030,208.586 176.800 C 208.233 177.570,206.606 180.913,204.972 184.229 C 203.337 187.545,202.000 190.448,202.000 190.680 C 202.000 190.912,201.739 191.318,201.420 191.583 C 201.102 191.848,200.623 192.725,200.357 193.532 C 200.091 194.339,199.521 195.477,199.091 196.061 C 198.024 197.505,198.045 200.587,199.136 202.641 C 199.592 203.498,200.523 205.460,201.206 207.000 C 201.889 208.540,202.784 210.520,203.196 211.400 C 205.133 215.545,206.329 218.286,206.599 219.200 C 206.762 219.750,207.121 220.470,207.397 220.800 C 207.673 221.130,208.124 222.120,208.400 223.000 C 208.676 223.880,209.131 224.870,209.412 225.200 C 210.236 226.169,211.576 230.947,211.148 231.394 C 210.604 231.964,202.286 232.181,201.296 231.652 C 200.467 231.208,198.000 227.211,198.000 226.312 C 198.000 226.037,197.571 224.909,197.046 223.806 C 195.449 220.447,193.600 216.155,193.600 215.808 C 193.600 215.511,193.013 214.163,190.807 209.400 C 190.400 208.520,189.844 207.083,189.571 206.206 C 188.690 203.369,188.458 205.635,188.426 217.400 C 188.394 229.350,188.151 231.359,186.694 231.750 C 183.823 232.519,177.450 231.833,176.714 230.675 C 176.263 229.966,176.326 155.047,176.778 153.857 C 176.990 153.301,177.564 152.784,178.078 152.685 C 179.508 152.412,185.697 152.383,186.675 152.646 M287.756 153.013 C 288.807 154.064,288.836 155.288,288.717 193.258 C 288.581 236.357,289.111 232.000,284.000 232.000 C 280.728 232.000,280.012 231.640,279.420 229.700 C 279.097 228.639,277.196 228.441,276.411 229.387 C 273.941 232.363,266.463 233.270,262.707 231.051 C 256.800 227.560,255.200 221.240,255.200 201.400 C 255.200 189.089,255.758 182.488,257.036 179.688 C 257.566 178.527,258.000 177.406,258.000 177.198 C 258.000 176.990,259.035 175.764,260.300 174.473 C 263.891 170.808,269.322 170.176,274.615 172.807 C 277.550 174.267,277.261 175.190,277.215 164.497 C 277.176 155.501,277.407 153.425,278.525 152.714 C 279.480 152.107,287.096 152.353,287.756 153.013 M42.173 157.785 C 41.354 159.035,41.571 162.998,42.592 165.442 C 42.964 166.333,43.369 169.152,43.586 172.372 C 43.805 175.608,44.207 178.407,44.583 179.302 C 44.957 180.195,45.356 182.959,45.566 186.119 C 45.778 189.304,46.175 192.044,46.556 192.957 C 46.941 193.877,47.337 196.642,47.557 199.940 C 47.775 203.201,48.180 206.044,48.563 207.000 C 48.939 207.936,49.351 210.759,49.556 213.800 C 49.749 216.660,50.196 219.810,50.550 220.800 C 50.904 221.790,51.312 224.366,51.458 226.525 C 51.854 232.375,51.884 232.400,58.613 232.400 C 65.732 232.400,66.148 232.022,66.626 225.115 C 66.782 222.854,67.171 220.774,67.618 219.800 C 68.086 218.783,68.450 216.741,68.617 214.200 C 68.786 211.632,69.146 209.627,69.622 208.600 C 70.089 207.593,70.457 205.590,70.614 203.200 C 70.760 200.991,71.171 198.647,71.597 197.600 C 72.109 196.344,72.424 194.109,72.641 190.200 C 72.984 184.022,73.533 184.673,73.577 191.310 C 73.593 193.764,73.844 195.509,74.410 197.110 C 74.861 198.386,75.372 201.274,75.564 203.631 C 75.761 206.052,76.178 208.385,76.540 209.084 C 76.919 209.817,77.328 212.234,77.562 215.127 C 77.792 217.966,78.207 220.440,78.572 221.145 C 78.912 221.804,79.305 223.931,79.445 225.871 C 79.909 232.311,80.134 232.486,87.758 232.315 C 94.331 232.168,94.280 232.218,94.631 225.600 C 94.772 222.933,95.122 220.447,95.463 219.684 C 96.108 218.245,96.782 212.809,96.793 208.961 C 96.797 207.568,97.067 205.987,97.423 205.273 C 98.084 203.950,98.781 198.555,98.793 194.680 C 98.797 193.404,99.066 191.845,99.392 191.216 C 100.049 189.944,100.792 184.315,100.797 180.561 C 100.799 179.161,101.065 177.591,101.423 176.873 C 102.092 175.533,102.781 170.141,102.793 166.161 C 102.797 164.820,103.053 163.200,103.361 162.561 C 105.512 158.112,104.491 157.041,97.936 156.875 C 91.820 156.720,91.652 156.813,91.182 160.622 C 90.993 162.150,90.647 164.120,90.411 165.000 C 90.176 165.880,89.806 170.092,89.589 174.360 C 89.347 179.131,88.956 182.905,88.575 184.160 C 88.054 185.872,87.598 191.623,87.178 201.800 C 87.151 202.460,86.875 201.596,86.564 199.881 C 86.254 198.165,85.754 196.275,85.453 195.681 C 85.152 195.086,84.778 192.801,84.622 190.601 C 84.455 188.253,84.033 185.859,83.599 184.801 C 83.151 183.708,82.762 181.428,82.608 179.000 C 82.436 176.302,82.101 174.471,81.577 173.374 C 81.150 172.479,80.794 170.949,80.787 169.974 C 80.765 166.971,80.116 162.915,79.442 161.564 C 79.089 160.856,78.800 159.855,78.800 159.339 C 78.800 157.391,77.561 156.799,73.500 156.806 C 68.404 156.814,67.940 157.102,67.368 160.606 C 67.118 162.143,66.644 164.120,66.316 165.000 C 65.987 165.880,65.594 168.283,65.442 170.341 C 65.280 172.533,64.920 174.456,64.572 174.987 C 64.227 175.513,63.825 177.634,63.612 180.046 C 63.411 182.331,62.948 184.910,62.585 185.779 C 62.221 186.647,61.756 189.167,61.551 191.379 C 61.347 193.590,60.836 196.300,60.416 197.400 C 59.996 198.500,59.497 200.210,59.308 201.200 C 59.027 202.667,58.910 201.777,58.673 196.400 C 58.507 192.620,58.113 188.774,57.750 187.400 C 57.402 186.080,56.946 182.030,56.736 178.400 C 56.526 174.770,56.072 170.720,55.727 169.400 C 55.382 168.080,54.987 165.071,54.850 162.713 C 54.513 156.940,54.627 157.037,48.017 156.869 L 42.859 156.738 42.173 157.785 M300.200 157.343 C 299.158 158.115,298.914 230.491,299.949 231.739 C 300.808 232.774,310.791 232.715,311.738 231.669 C 312.754 230.546,312.756 158.394,311.740 157.549 C 310.736 156.714,301.277 156.545,300.200 157.343 M323.899 157.491 C 323.067 158.410,322.791 230.089,323.614 231.626 C 324.290 232.890,333.280 232.792,334.177 231.511 C 334.719 230.737,334.805 228.030,334.841 210.611 C 334.876 193.473,334.955 190.931,335.387 192.909 C 335.665 194.179,336.164 195.529,336.496 195.909 C 336.827 196.289,337.226 197.311,337.383 198.181 C 337.539 199.050,338.102 200.579,338.633 201.578 C 339.165 202.576,339.600 203.866,339.600 204.443 C 339.600 205.020,339.945 205.931,340.367 206.467 C 340.789 207.004,341.259 208.153,341.411 209.021 C 341.564 209.890,342.019 211.180,342.424 211.888 C 342.828 212.597,343.275 213.857,343.417 214.688 C 343.559 215.520,344.005 216.670,344.409 217.245 C 344.813 217.820,345.263 218.990,345.409 219.845 C 345.555 220.700,346.014 221.882,346.428 222.471 C 346.842 223.060,347.293 224.320,347.431 225.271 C 347.568 226.222,348.022 227.488,348.440 228.084 C 348.858 228.680,349.200 229.364,349.200 229.604 C 349.200 229.844,349.475 230.571,349.810 231.220 L 350.421 232.400 354.988 232.400 C 361.521 232.400,360.800 237.088,360.800 194.600 C 360.800 152.118,361.518 156.800,355.006 156.800 C 348.523 156.800,349.185 154.277,349.207 178.888 C 349.217 190.339,349.130 199.803,349.013 199.920 C 348.896 200.038,348.799 199.608,348.798 198.967 C 348.795 197.299,348.059 194.876,347.445 194.511 C 347.156 194.340,346.802 193.310,346.657 192.223 C 346.513 191.135,346.057 189.875,345.645 189.423 C 345.233 188.970,344.775 187.758,344.627 186.728 C 344.480 185.699,344.034 184.439,343.636 183.928 C 343.238 183.418,342.788 182.158,342.636 181.128 C 342.484 180.099,342.034 178.839,341.636 178.328 C 341.238 177.818,340.788 176.558,340.636 175.528 C 340.484 174.499,340.034 173.239,339.636 172.728 C 339.238 172.218,338.789 170.966,338.639 169.946 C 338.488 168.926,338.032 167.791,337.626 167.423 C 337.176 167.017,336.782 165.916,336.620 164.618 C 336.451 163.273,336.065 162.221,335.576 161.779 C 335.149 161.392,334.800 160.584,334.800 159.982 C 334.800 157.120,326.046 155.119,323.899 157.491 M53.304 158.300 C 53.755 158.803,54.058 160.574,54.381 164.600 C 54.628 167.680,55.013 170.920,55.237 171.800 C 55.461 172.680,55.987 177.090,56.406 181.600 C 56.826 186.110,57.345 190.790,57.561 192.000 C 57.987 194.390,58.771 204.413,58.848 208.475 C 58.892 210.736,58.955 210.521,59.452 206.413 C 59.757 203.890,60.358 200.560,60.787 199.013 C 61.216 197.466,61.750 194.715,61.972 192.900 C 62.195 191.085,62.647 188.655,62.976 187.500 C 63.305 186.345,63.766 183.823,63.999 181.895 C 64.233 179.967,64.609 177.902,64.836 177.305 C 65.063 176.709,65.520 174.236,65.852 171.811 C 66.184 169.385,66.693 166.680,66.983 165.800 C 67.273 164.920,67.639 163.030,67.798 161.600 C 68.218 157.802,68.504 157.600,73.448 157.600 C 78.132 157.600,78.122 157.593,78.604 161.000 C 78.759 162.100,79.130 163.810,79.428 164.800 C 79.726 165.790,80.165 168.310,80.404 170.400 C 80.643 172.490,81.085 175.100,81.387 176.200 C 81.689 177.300,82.148 180.000,82.408 182.200 C 82.668 184.400,83.031 186.481,83.215 186.825 C 83.398 187.169,83.832 189.509,84.180 192.025 C 84.527 194.541,85.193 198.130,85.660 200.000 C 86.126 201.870,86.621 205.200,86.759 207.400 L 87.010 211.400 87.550 203.000 C 88.109 194.290,88.474 190.431,89.155 186.000 C 89.375 184.570,89.757 180.430,90.003 176.800 C 90.248 173.170,90.608 169.480,90.802 168.600 C 90.996 167.720,91.345 165.127,91.579 162.839 C 92.132 157.427,91.939 157.600,97.420 157.600 C 102.480 157.600,103.422 157.994,103.032 159.949 C 102.917 160.527,102.541 163.663,102.195 166.917 C 101.850 170.171,101.409 173.249,101.216 173.758 C 101.023 174.266,100.656 176.797,100.402 179.382 C 100.147 181.967,99.760 185.008,99.541 186.141 C 99.322 187.273,98.805 190.990,98.391 194.400 C 97.978 197.810,97.453 201.320,97.225 202.200 C 96.997 203.080,96.538 206.390,96.205 209.555 C 95.872 212.720,95.420 215.960,95.201 216.755 C 94.981 217.550,94.549 220.630,94.239 223.600 C 93.391 231.741,93.163 232.000,86.835 232.000 C 81.062 232.000,80.631 231.498,79.790 223.800 C 79.645 222.480,79.200 219.960,78.800 218.200 C 78.400 216.440,77.956 213.830,77.813 212.400 C 77.670 210.970,77.289 208.764,76.965 207.498 C 76.642 206.232,76.198 203.712,75.978 201.898 C 75.759 200.084,75.316 197.340,74.994 195.800 C 74.672 194.260,74.231 191.184,74.015 188.964 C 73.278 181.397,72.820 181.678,72.003 190.200 C 71.771 192.620,71.410 195.050,71.202 195.600 C 70.993 196.150,70.556 198.688,70.230 201.240 C 69.904 203.792,69.454 206.312,69.230 206.840 C 69.006 207.368,68.540 209.922,68.195 212.517 C 67.850 215.111,67.398 217.631,67.191 218.117 C 66.984 218.602,66.546 221.000,66.217 223.444 C 65.144 231.425,64.655 232.000,58.947 232.000 C 52.889 232.000,52.374 231.466,51.818 224.600 C 51.676 222.840,51.306 220.293,50.995 218.941 C 50.684 217.588,50.232 214.438,49.988 211.941 C 49.745 209.443,49.295 206.293,48.988 204.941 C 48.682 203.588,48.232 200.438,47.988 197.941 C 47.745 195.443,47.283 192.240,46.961 190.822 C 46.639 189.404,46.197 186.434,45.978 184.222 C 45.760 182.010,45.238 178.310,44.818 176.000 C 44.399 173.690,43.942 170.450,43.803 168.800 C 43.665 167.150,43.292 164.664,42.976 163.275 C 41.731 157.816,41.923 157.600,48.018 157.600 C 51.948 157.600,52.774 157.709,53.304 158.300 M311.166 158.300 L 312.021 159.000 311.910 194.686 C 311.781 236.497,312.542 231.733,305.958 231.936 C 299.227 232.144,300.000 236.986,300.000 194.618 C 300.000 167.106,300.114 158.446,300.480 158.080 C 301.305 157.255,310.111 157.436,311.166 158.300 M333.361 158.218 C 333.701 158.558,334.181 159.593,334.429 160.518 C 334.676 161.443,335.024 162.380,335.201 162.600 C 335.379 162.820,335.830 164.080,336.203 165.400 C 336.577 166.720,337.104 168.160,337.375 168.600 C 337.647 169.040,338.085 170.272,338.349 171.337 C 338.614 172.403,339.071 173.663,339.365 174.137 C 339.659 174.612,340.096 175.810,340.336 176.800 C 340.576 177.790,341.138 179.313,341.586 180.185 C 342.034 181.056,342.401 182.136,342.402 182.585 C 342.404 183.033,342.696 183.940,343.051 184.600 C 343.407 185.260,344.027 186.790,344.429 188.000 C 346.060 192.906,346.844 195.049,347.357 196.000 C 347.654 196.550,348.130 197.990,348.415 199.200 C 349.623 204.323,349.883 200.223,349.682 179.236 C 349.540 164.478,349.611 159.126,349.959 158.476 C 350.645 157.194,359.314 157.119,359.994 158.389 C 360.693 159.694,360.360 230.485,359.651 231.339 C 359.074 232.034,353.746 232.241,351.632 231.650 C 350.658 231.377,348.959 228.084,347.479 223.600 C 347.152 222.610,346.400 220.540,345.807 219.000 C 345.214 217.460,344.464 215.390,344.139 214.400 C 343.814 213.410,343.297 212.060,342.990 211.400 C 342.451 210.239,341.383 207.320,340.137 203.600 C 339.806 202.610,339.189 201.060,338.767 200.156 C 338.345 199.252,338.000 198.285,338.000 198.006 C 338.000 197.728,337.558 196.488,337.018 195.250 C 336.478 194.013,335.834 192.212,335.589 191.249 C 334.436 186.734,334.200 190.017,334.200 210.557 C 334.200 227.017,334.100 230.793,333.651 231.336 C 332.847 232.309,325.156 232.311,324.349 231.339 C 323.640 230.485,323.307 159.694,324.006 158.389 C 324.572 157.331,332.332 157.189,333.361 158.218 M152.283 170.558 C 151.449 170.866,150.099 171.236,149.283 171.382 C 147.765 171.653,144.704 173.566,143.562 174.957 C 142.951 175.702,142.913 175.666,142.665 174.119 C 142.276 171.681,141.688 171.399,136.994 171.405 C 130.942 171.411,131.600 167.729,131.600 201.605 C 131.600 236.385,130.736 232.477,138.389 232.315 C 145.533 232.163,144.787 235.164,144.794 206.547 C 144.800 182.950,144.802 182.893,145.630 182.676 C 146.086 182.557,146.557 182.086,146.676 181.630 C 146.867 180.902,147.195 180.802,149.347 180.813 C 153.685 180.835,153.381 178.910,153.515 207.177 C 153.594 223.812,153.765 231.517,154.064 231.877 C 154.816 232.784,164.892 232.604,165.738 231.669 C 166.819 230.473,166.743 180.549,165.658 179.154 C 165.250 178.629,164.799 177.562,164.655 176.782 C 164.313 174.918,161.147 171.791,159.200 171.394 C 158.430 171.236,157.611 170.956,157.380 170.771 C 156.560 170.115,153.799 169.999,152.283 170.558 M230.000 170.293 C 229.450 170.394,228.820 170.619,228.600 170.793 C 228.380 170.967,227.416 171.239,226.458 171.397 C 225.499 171.555,224.374 172.026,223.958 172.442 C 223.541 172.859,223.020 173.200,222.800 173.200 C 222.192 173.200,219.200 176.322,219.200 176.957 C 219.200 177.264,218.940 177.614,218.622 177.736 C 218.305 177.858,217.824 178.732,217.553 179.679 C 217.283 180.625,216.798 181.712,216.476 182.092 C 214.393 184.554,214.363 218.018,216.442 221.225 C 216.789 221.761,217.203 222.740,217.362 223.400 C 217.897 225.625,222.055 230.800,223.308 230.800 C 223.550 230.800,224.180 231.205,224.706 231.700 C 226.096 233.006,237.518 233.084,239.418 231.801 C 240.068 231.362,241.095 230.786,241.700 230.521 C 242.305 230.256,242.800 229.845,242.800 229.609 C 242.800 229.373,243.250 229.009,243.800 228.800 C 244.384 228.578,244.800 228.103,244.800 227.657 C 244.800 227.237,245.148 226.802,245.574 226.691 C 246.103 226.552,246.428 226.002,246.605 224.944 C 246.885 223.266,246.949 223.089,247.810 221.600 C 248.183 220.955,248.390 219.449,248.394 217.362 C 248.402 212.956,248.052 212.646,242.852 212.465 C 238.171 212.302,237.620 212.678,237.232 216.299 C 236.709 221.187,233.993 223.138,230.154 221.383 C 228.635 220.689,228.505 220.028,228.137 211.121 L 227.878 204.843 237.095 204.721 L 246.311 204.600 247.142 203.600 C 248.908 201.476,249.410 183.570,247.767 181.334 C 247.308 180.710,246.821 179.628,246.682 178.928 C 246.101 175.985,241.726 171.909,238.600 171.398 C 237.720 171.254,236.321 170.881,235.492 170.568 C 234.027 170.016,232.045 169.917,230.000 170.293 M111.000 171.528 L 109.800 171.808 109.697 201.560 C 109.623 223.207,109.718 231.460,110.046 231.856 C 110.815 232.782,120.876 232.621,121.738 231.669 C 122.728 230.574,122.758 172.795,121.768 171.973 C 121.060 171.386,113.031 171.054,111.000 171.528 M158.210 171.644 C 160.569 172.238,163.831 175.450,164.419 177.757 C 164.649 178.661,165.054 179.940,165.319 180.600 C 166.208 182.817,165.989 230.182,165.086 231.086 C 163.975 232.197,155.389 232.146,154.568 231.024 C 154.093 230.374,154.000 226.406,154.000 206.704 C 154.000 186.898,153.908 182.982,153.419 182.036 C 152.099 179.484,147.947 179.378,145.564 181.837 L 144.200 183.244 144.000 207.110 L 143.800 230.977 142.800 231.506 C 141.156 232.375,133.682 232.000,132.959 231.012 C 132.194 229.965,132.117 173.243,132.880 172.480 C 133.480 171.880,140.131 171.828,141.226 172.414 C 141.678 172.656,142.000 173.249,142.000 173.840 C 142.000 176.115,142.725 176.621,144.137 175.334 C 148.141 171.684,153.150 170.370,158.210 171.644 M237.045 171.637 C 244.337 172.907,248.068 179.539,248.046 191.194 C 248.034 197.506,247.955 198.369,247.119 201.400 C 246.299 204.370,246.194 204.400,236.588 204.400 C 231.901 204.400,227.781 204.509,227.433 204.643 C 226.475 205.010,226.591 211.372,227.656 216.814 L 228.512 221.190 230.292 222.233 C 233.924 224.361,237.162 222.015,237.831 216.769 C 238.299 213.096,238.316 213.083,242.597 213.271 C 247.979 213.506,248.678 215.070,246.717 222.485 C 245.905 225.552,242.229 230.400,240.714 230.400 C 240.517 230.400,239.511 230.802,238.478 231.294 C 235.301 232.807,228.210 232.615,225.000 230.930 C 221.015 228.838,219.076 226.375,217.069 220.858 L 215.811 217.400 215.806 202.000 C 215.802 191.057,215.939 186.195,216.280 185.200 C 218.444 178.885,218.838 178.105,221.182 175.484 C 224.499 171.776,230.076 170.424,237.045 171.637 M121.331 172.500 C 122.409 173.289,122.171 230.000,121.086 231.086 C 119.975 232.197,111.388 232.146,110.568 231.024 C 109.795 229.966,109.710 173.250,110.480 172.480 C 111.156 171.804,120.403 171.822,121.331 172.500 M229.947 180.604 C 229.369 180.918,228.769 181.496,228.615 181.888 C 227.945 183.590,227.101 188.472,226.918 191.695 L 226.721 195.190 227.860 195.631 C 229.144 196.127,236.283 195.973,237.156 195.430 C 238.062 194.865,237.509 186.472,236.357 183.313 C 235.186 180.101,232.760 179.076,229.947 180.604 M270.129 180.278 C 268.892 180.519,268.593 181.019,267.643 184.426 C 266.362 189.021,266.360 213.714,267.639 218.457 C 268.827 222.857,271.059 224.200,274.152 222.375 C 277.249 220.548,277.200 220.880,277.200 201.548 L 277.200 184.342 276.181 182.604 C 274.860 180.349,273.147 179.691,270.129 180.278 M234.777 181.373 C 236.175 183.057,237.295 194.038,236.183 195.151 C 235.832 195.502,230.160 195.727,229.001 195.436 C 227.325 195.015,227.906 183.656,229.701 181.762 C 230.762 180.643,233.968 180.397,234.777 181.373 M274.533 181.300 C 275.922 182.758,276.000 183.855,275.994 201.719 C 275.990 215.045,275.865 219.643,275.489 220.386 C 274.379 222.580,269.416 222.445,268.642 220.200 C 267.860 217.929,268.072 184.083,268.880 182.300 C 269.611 180.685,273.323 180.029,274.533 181.300 " stroke="none" fill="#6174de" fill-rule="evenodd"></path><path id="path3" d="M111.414 150.841 C 110.636 151.524,110.000 152.258,110.000 152.472 C 110.000 152.686,110.465 152.309,111.033 151.634 C 111.601 150.958,112.636 150.241,113.333 150.039 C 114.308 149.757,114.396 149.664,113.714 149.636 C 113.227 149.616,112.192 150.159,111.414 150.841 M121.199 151.500 C 121.722 152.215,122.213 152.800,122.289 152.800 C 122.593 152.800,121.601 151.300,120.945 150.767 C 120.513 150.416,120.610 150.696,121.199 151.500 M180.713 152.695 C 181.876 152.776,183.676 152.776,184.713 152.693 C 185.751 152.611,184.800 152.545,182.600 152.546 C 180.400 152.547,179.551 152.614,180.713 152.695 M278.229 153.029 C 277.883 153.374,277.600 153.864,277.600 154.118 C 277.600 154.371,277.880 154.178,278.223 153.689 C 278.798 152.867,279.160 152.800,283.000 152.800 C 286.840 152.800,287.202 152.867,287.777 153.689 C 288.120 154.178,288.400 154.371,288.400 154.118 C 288.400 152.793,287.165 152.400,283.000 152.400 C 279.767 152.400,278.719 152.538,278.229 153.029 M176.984 153.227 C 176.560 153.913,176.939 153.980,177.777 153.367 C 178.426 152.893,178.446 152.800,177.900 152.800 C 177.541 152.800,177.129 152.992,176.984 153.227 M122.501 155.400 C 122.505 156.280,122.587 156.593,122.683 156.095 C 122.779 155.598,122.775 154.878,122.675 154.495 C 122.575 154.113,122.496 154.520,122.501 155.400 M176.498 192.271 C 176.394 232.547,176.356 231.600,178.073 231.600 C 178.302 231.600,178.107 231.285,177.640 230.900 L 176.791 230.200 176.694 192.200 L 176.596 154.200 176.498 192.271 M188.185 174.400 C 188.185 185.290,188.237 189.745,188.300 184.300 C 188.363 178.855,188.363 169.945,188.300 164.500 C 188.237 159.055,188.185 163.510,188.185 174.400 M277.372 163.800 C 277.372 168.860,277.429 170.875,277.499 168.277 C 277.569 165.680,277.568 161.540,277.498 159.077 C 277.428 156.615,277.371 158.740,277.372 163.800 M288.592 192.000 C 288.592 212.570,288.640 220.985,288.700 210.700 C 288.759 200.415,288.759 183.585,288.700 173.300 C 288.640 163.015,288.592 171.430,288.592 192.000 M42.749 158.300 C 42.272 158.909,42.278 158.940,42.800 158.543 C 43.130 158.292,43.760 157.998,44.200 157.889 C 44.960 157.703,44.957 157.690,44.149 157.646 C 43.681 157.621,43.051 157.915,42.749 158.300 M52.309 158.016 C 52.810 158.217,53.383 158.790,53.584 159.291 C 53.819 159.876,53.958 159.973,53.975 159.562 C 54.005 158.793,52.759 157.590,51.969 157.625 C 51.656 157.639,51.809 157.815,52.309 158.016 M359.470 158.000 C 359.652 158.330,359.892 174.620,360.004 194.200 L 360.209 229.800 360.304 194.376 C 360.390 162.650,360.334 158.872,359.770 158.176 C 359.424 157.749,359.289 157.670,359.470 158.000 M311.106 158.449 C 311.857 159.411,311.637 230.122,310.881 230.880 C 309.784 231.979,301.118 231.578,300.520 230.400 C 300.202 229.775,300.010 229.639,300.006 230.038 C 299.987 232.119,309.186 232.989,311.087 231.086 C 312.191 229.980,312.405 159.216,311.306 158.354 C 310.677 157.860,310.655 157.871,311.106 158.449 M323.792 194.200 C 323.792 213.780,323.840 221.731,323.900 211.870 C 323.960 202.008,323.959 185.988,323.900 176.270 C 323.840 166.551,323.791 174.620,323.792 194.200 M349.783 175.000 C 349.783 184.020,349.835 187.767,349.899 183.327 C 349.964 178.887,349.964 171.507,349.900 166.927 C 349.835 162.347,349.783 165.980,349.783 175.000 M91.693 161.600 C 91.693 162.370,91.775 162.685,91.876 162.300 C 91.976 161.915,91.976 161.285,91.876 160.900 C 91.775 160.515,91.693 160.830,91.693 161.600 M102.493 162.000 C 102.493 162.770,102.575 163.085,102.676 162.700 C 102.776 162.315,102.776 161.685,102.676 161.300 C 102.575 160.915,102.493 161.230,102.493 162.000 M111.518 162.079 C 112.350 163.118,114.596 164.004,116.260 163.950 C 117.675 163.904,117.632 163.876,115.728 163.597 C 114.588 163.431,113.058 162.875,112.328 162.363 C 111.584 161.841,111.228 161.716,111.518 162.079 M54.114 163.800 C 54.117 164.900,54.195 165.303,54.287 164.695 C 54.379 164.086,54.377 163.186,54.282 162.695 C 54.187 162.203,54.111 162.700,54.114 163.800 M118.800 163.000 C 118.112 163.393,118.003 163.576,118.451 163.586 C 118.809 163.594,119.326 163.330,119.600 163.000 C 120.209 162.266,120.084 162.266,118.800 163.000 M102.101 165.800 C 102.105 166.680,102.187 166.993,102.283 166.495 C 102.379 165.998,102.375 165.278,102.275 164.895 C 102.175 164.513,102.096 164.920,102.101 165.800 M91.293 166.000 C 91.293 166.770,91.375 167.085,91.476 166.700 C 91.576 166.315,91.576 165.685,91.476 165.300 C 91.375 164.915,91.293 165.230,91.293 166.000 M66.649 166.615 C 66.512 166.973,66.418 167.656,66.441 168.133 C 66.467 168.681,66.603 168.486,66.810 167.603 C 67.160 166.116,67.065 165.533,66.649 166.615 M54.509 168.400 C 54.509 169.390,54.587 169.795,54.682 169.300 C 54.778 168.805,54.778 167.995,54.682 167.500 C 54.587 167.005,54.509 167.410,54.509 168.400 M336.800 168.078 C 336.800 168.205,337.069 168.824,337.398 169.454 C 337.726 170.084,337.990 170.330,337.985 170.000 C 337.979 169.670,337.710 169.051,337.387 168.624 C 337.064 168.196,336.800 167.951,336.800 168.078 M80.093 170.000 C 80.093 170.770,80.175 171.085,80.276 170.700 C 80.376 170.315,80.376 169.685,80.276 169.300 C 80.175 168.915,80.093 169.230,80.093 170.000 M90.514 171.400 C 90.517 172.500,90.595 172.903,90.687 172.295 C 90.779 171.686,90.777 170.786,90.682 170.295 C 90.587 169.803,90.511 170.300,90.514 171.400 M55.073 172.800 C 55.204 173.790,55.376 174.675,55.456 174.767 C 55.757 175.114,55.528 172.564,55.190 171.800 C 54.953 171.266,54.914 171.598,55.073 172.800 M101.249 171.800 C 101.216 172.240,101.096 173.050,100.983 173.600 L 100.777 174.600 101.206 173.619 C 101.442 173.079,101.561 172.269,101.472 171.819 C 101.313 171.021,101.307 171.021,101.249 171.800 M153.500 171.489 C 154.215 171.578,155.385 171.578,156.100 171.489 C 156.815 171.401,156.230 171.328,154.800 171.328 C 153.370 171.328,152.785 171.401,153.500 171.489 M230.700 171.493 C 231.635 171.577,233.165 171.577,234.100 171.493 C 235.035 171.409,234.270 171.340,232.400 171.340 C 230.530 171.340,229.765 171.409,230.700 171.493 M267.300 171.487 C 267.905 171.578,268.895 171.578,269.500 171.487 C 270.105 171.395,269.610 171.320,268.400 171.320 C 267.190 171.320,266.695 171.395,267.300 171.487 M147.544 172.824 L 146.600 173.647 147.800 172.945 C 149.379 172.020,149.403 172.000,148.911 172.000 C 148.679 172.000,148.064 172.371,147.544 172.824 M238.833 172.121 C 238.925 172.188,239.540 172.558,240.200 172.945 L 241.400 173.647 240.456 172.824 C 239.936 172.371,239.321 172.000,239.089 172.000 C 238.857 172.000,238.742 172.054,238.833 172.121 M273.969 172.838 C 275.326 173.665,277.583 174.650,277.166 174.233 C 276.826 173.892,273.189 172.000,272.879 172.001 C 272.725 172.002,273.216 172.379,273.969 172.838 M121.400 201.400 C 121.400 234.891,122.031 231.302,116.080 231.651 L 111.800 231.903 116.087 231.851 C 122.484 231.775,121.781 235.416,121.908 201.714 C 121.967 185.952,121.877 172.917,121.708 172.748 C 121.539 172.579,121.400 185.472,121.400 201.400 M260.378 174.300 L 259.000 175.800 260.500 174.422 C 261.896 173.138,262.184 172.800,261.878 172.800 C 261.812 172.800,261.137 173.475,260.378 174.300 M90.101 175.000 C 90.105 175.880,90.187 176.193,90.283 175.695 C 90.379 175.198,90.375 174.478,90.275 174.095 C 90.175 173.713,90.096 174.120,90.101 175.000 M144.461 174.993 C 143.613 175.759,142.773 176.254,142.595 176.093 C 142.417 175.932,142.411 176.041,142.581 176.335 C 142.816 176.741,143.241 176.548,144.345 175.536 C 145.145 174.802,145.971 174.067,146.180 173.901 C 146.389 173.735,146.435 173.600,146.281 173.600 C 146.128 173.600,145.309 174.227,144.461 174.993 M221.178 175.500 L 219.800 177.000 221.300 175.622 C 222.696 174.338,222.984 174.000,222.678 174.000 C 222.612 174.000,221.937 174.675,221.178 175.500 M80.856 175.200 C 80.856 175.530,81.011 176.160,81.200 176.600 C 81.417 177.104,81.544 177.178,81.544 176.800 C 81.544 176.470,81.389 175.840,81.200 175.400 C 80.983 174.896,80.856 174.822,80.856 175.200 M163.079 175.589 C 163.342 175.934,163.736 176.663,163.954 177.208 C 164.217 177.868,164.358 177.973,164.375 177.522 C 164.389 177.150,163.995 176.421,163.500 175.903 C 163.005 175.385,162.816 175.243,163.079 175.589 M243.877 176.031 C 244.275 176.708,244.856 177.473,245.168 177.731 C 245.480 177.989,245.232 177.435,244.615 176.500 C 243.320 174.537,242.809 174.212,243.877 176.031 M55.701 176.600 C 55.705 177.480,55.787 177.793,55.883 177.295 C 55.979 176.798,55.975 176.078,55.875 175.695 C 55.775 175.313,55.696 175.720,55.701 176.600 M206.871 179.559 C 206.392 180.411,206.000 181.340,206.000 181.622 C 206.000 181.905,206.444 181.259,206.986 180.187 C 208.176 177.838,208.093 177.386,206.871 179.559 M100.101 180.200 C 100.105 181.080,100.187 181.393,100.283 180.895 C 100.379 180.398,100.375 179.678,100.275 179.295 C 100.175 178.913,100.096 179.320,100.101 180.200 M56.120 181.600 C 56.120 182.810,56.195 183.305,56.287 182.700 C 56.378 182.095,56.378 181.105,56.287 180.500 C 56.195 179.895,56.120 180.390,56.120 181.600 M45.693 181.200 C 45.693 181.970,45.775 182.285,45.876 181.900 C 45.976 181.515,45.976 180.885,45.876 180.500 C 45.775 180.115,45.693 180.430,45.693 181.200 M89.701 181.400 C 89.705 182.280,89.787 182.593,89.883 182.095 C 89.979 181.598,89.975 180.878,89.875 180.495 C 89.775 180.113,89.696 180.520,89.701 181.400 M165.044 181.000 C 165.373 182.471,165.602 182.790,165.594 181.767 C 165.591 181.345,165.405 180.730,165.182 180.400 C 164.885 179.962,164.848 180.124,165.044 181.000 M145.245 181.754 C 144.304 182.724,143.983 183.376,144.112 184.054 L 144.291 185.000 144.346 184.019 C 144.375 183.480,144.975 182.445,145.678 181.719 C 146.382 180.994,146.867 180.400,146.757 180.400 C 146.647 180.400,145.966 181.009,145.245 181.754 M275.960 182.200 C 276.634 183.505,277.188 184.228,277.185 183.800 C 277.183 183.580,276.814 182.950,276.364 182.400 C 275.821 181.736,275.685 181.669,275.960 182.200 M267.429 183.829 C 267.281 184.415,267.238 184.972,267.332 185.066 C 267.427 185.160,267.624 184.758,267.771 184.171 C 267.919 183.585,267.962 183.028,267.868 182.934 C 267.773 182.840,267.576 183.242,267.429 183.829 M165.600 206.680 C 165.368 234.134,165.993 231.312,160.080 231.632 L 155.800 231.864 159.474 231.932 C 166.547 232.063,166.029 234.147,165.903 206.065 L 165.800 183.000 165.600 206.680 M89.301 185.800 C 89.305 186.680,89.387 186.993,89.483 186.495 C 89.579 185.998,89.575 185.278,89.475 184.895 C 89.375 184.513,89.296 184.920,89.301 185.800 M277.296 201.477 C 277.188 220.870,277.236 220.556,274.152 222.375 C 272.468 223.369,271.524 223.410,270.086 222.553 L 269.000 221.905 270.000 222.744 C 271.312 223.844,272.477 223.814,274.350 222.632 C 277.696 220.519,277.623 221.012,277.500 201.470 L 277.391 184.200 277.296 201.477 M56.501 186.200 C 56.505 187.080,56.587 187.393,56.683 186.895 C 56.779 186.398,56.775 185.678,56.675 185.295 C 56.575 184.913,56.496 185.320,56.501 186.200 M72.093 186.800 C 72.093 187.570,72.175 187.885,72.276 187.500 C 72.376 187.115,72.376 186.485,72.276 186.100 C 72.175 185.715,72.093 186.030,72.093 186.800 M99.254 186.267 C 99.225 186.744,99.096 187.464,98.970 187.867 C 98.752 188.561,98.764 188.562,99.196 187.888 C 99.447 187.497,99.575 186.777,99.481 186.288 C 99.309 185.401,99.309 185.401,99.254 186.267 M227.249 186.200 C 227.216 186.640,227.096 187.450,226.983 188.000 L 226.777 189.000 227.206 188.019 C 227.442 187.479,227.561 186.669,227.472 186.219 C 227.313 185.421,227.307 185.421,227.249 186.200 M237.293 186.800 C 237.293 187.570,237.375 187.885,237.476 187.500 C 237.576 187.115,237.576 186.485,237.476 186.100 C 237.375 185.715,237.293 186.030,237.293 186.800 M83.044 187.400 C 83.373 188.871,83.602 189.190,83.594 188.167 C 83.591 187.745,83.405 187.130,83.182 186.800 C 82.885 186.362,82.848 186.524,83.044 187.400 M266.580 201.600 C 266.580 209.190,266.634 212.295,266.699 208.500 C 266.765 204.705,266.765 198.495,266.699 194.700 C 266.634 190.905,266.580 194.010,266.580 201.600 M57.073 190.800 C 57.204 191.790,57.376 192.675,57.456 192.767 C 57.757 193.114,57.528 190.564,57.190 189.800 C 56.953 189.266,56.914 189.598,57.073 190.800 M88.514 191.000 C 88.517 192.100,88.595 192.503,88.687 191.895 C 88.779 191.286,88.777 190.386,88.682 189.895 C 88.587 189.403,88.511 189.900,88.514 191.000 M334.027 189.949 C 333.792 190.388,333.624 191.524,333.653 192.474 L 333.707 194.200 333.964 192.400 C 334.292 190.099,334.745 189.293,335.280 190.057 C 335.593 190.504,335.633 190.498,335.505 190.025 C 335.260 189.116,334.494 189.077,334.027 189.949 M215.709 191.200 C 215.709 192.190,215.787 192.595,215.882 192.100 C 215.978 191.605,215.978 190.795,215.882 190.300 C 215.787 189.805,215.709 190.210,215.709 191.200 M71.693 191.200 C 71.693 191.970,71.775 192.285,71.876 191.900 C 71.976 191.515,71.976 190.885,71.876 190.500 C 71.775 190.115,71.693 190.430,71.693 191.200 M255.377 201.400 C 255.377 207.780,255.432 210.334,255.499 207.076 C 255.567 203.817,255.566 198.597,255.499 195.476 C 255.431 192.354,255.376 195.020,255.377 201.400 M74.493 192.800 C 74.493 193.570,74.575 193.885,74.676 193.500 C 74.776 193.115,74.776 192.485,74.676 192.100 C 74.575 191.715,74.493 192.030,74.493 192.800 M84.093 193.200 C 84.093 193.970,84.175 194.285,84.276 193.900 C 84.376 193.515,84.376 192.885,84.276 192.500 C 84.175 192.115,84.093 192.430,84.093 193.200 M226.400 193.776 C 226.400 194.533,226.538 195.238,226.707 195.343 C 226.876 195.447,226.948 194.828,226.865 193.966 C 226.681 192.032,226.400 191.918,226.400 193.776 M71.260 193.667 C 71.227 194.254,71.096 195.064,70.970 195.467 C 70.752 196.160,70.765 196.161,71.195 195.490 C 71.446 195.099,71.577 194.289,71.486 193.690 L 71.320 192.600 71.260 193.667 M98.101 194.200 C 98.105 195.080,98.187 195.393,98.283 194.895 C 98.379 194.398,98.375 193.678,98.275 193.295 C 98.175 192.913,98.096 193.320,98.101 194.200 M57.693 194.400 C 57.693 195.170,57.775 195.485,57.876 195.100 C 57.976 194.715,57.976 194.085,57.876 193.700 C 57.775 193.315,57.693 193.630,57.693 194.400 M88.101 195.000 C 88.105 195.880,88.187 196.193,88.283 195.695 C 88.379 195.198,88.375 194.478,88.275 194.095 C 88.175 193.713,88.096 194.120,88.101 195.000 M189.393 194.423 C 189.174 195.113,189.036 195.185,188.762 194.753 C 188.533 194.391,188.410 194.364,188.406 194.676 C 188.395 195.564,189.157 195.627,189.612 194.777 C 189.861 194.312,189.977 193.843,189.869 193.736 C 189.761 193.628,189.547 193.937,189.393 194.423 M74.868 195.200 C 74.888 196.239,75.518 197.946,75.532 197.000 C 75.538 196.560,75.389 195.840,75.200 195.400 C 74.989 194.910,74.861 194.832,74.868 195.200 M247.701 197.000 C 247.705 197.880,247.787 198.193,247.883 197.695 C 247.979 197.198,247.975 196.478,247.875 196.095 C 247.775 195.713,247.696 196.120,247.701 197.000 M347.124 196.200 C 347.326 196.640,347.592 197.270,347.714 197.600 C 347.907 198.118,347.941 198.115,347.968 197.576 C 347.986 197.234,347.720 196.604,347.378 196.176 C 346.766 195.412,346.762 195.413,347.124 196.200 M58.120 199.600 C 58.120 200.810,58.195 201.305,58.287 200.700 C 58.378 200.095,58.378 199.105,58.287 198.500 C 58.195 197.895,58.120 198.390,58.120 199.600 M84.856 198.000 C 84.856 198.330,85.011 198.960,85.200 199.400 C 85.417 199.904,85.544 199.978,85.544 199.600 C 85.544 199.270,85.389 198.640,85.200 198.200 C 84.983 197.696,84.856 197.622,84.856 198.000 M247.254 199.467 C 247.225 199.944,247.096 200.664,246.970 201.067 C 246.752 201.761,246.764 201.762,247.196 201.088 C 247.447 200.697,247.575 199.977,247.481 199.488 C 247.309 198.601,247.309 198.601,247.254 199.467 M349.300 200.500 C 348.870 201.675,348.880 201.726,349.412 201.024 C 349.921 200.352,350.221 199.200,349.888 199.200 C 349.826 199.200,349.561 199.785,349.300 200.500 M60.200 201.200 C 60.046 202.110,60.004 202.938,60.107 203.040 C 60.210 203.143,60.413 202.477,60.560 201.560 C 60.707 200.643,60.748 199.815,60.653 199.720 C 60.558 199.624,60.354 200.290,60.200 201.200 M87.709 201.200 C 87.709 202.190,87.787 202.595,87.882 202.100 C 87.978 201.605,87.978 200.795,87.882 200.300 C 87.787 199.805,87.709 200.210,87.709 201.200 M97.249 200.200 C 97.216 200.640,97.096 201.450,96.983 202.000 L 96.777 203.000 97.206 202.019 C 97.442 201.479,97.561 200.669,97.472 200.219 C 97.313 199.421,97.307 199.421,97.249 200.200 M334.181 214.800 C 334.181 223.050,334.234 226.425,334.299 222.300 C 334.364 218.175,334.364 211.425,334.299 207.300 C 334.234 203.175,334.181 206.550,334.181 214.800 M48.493 202.000 C 48.493 202.770,48.575 203.085,48.676 202.700 C 48.776 202.315,48.776 201.685,48.676 201.300 C 48.575 200.915,48.493 201.230,48.493 202.000 M246.143 203.119 C 245.767 203.716,244.611 203.826,236.757 204.015 L 227.800 204.230 236.456 204.315 C 244.974 204.399,248.033 203.907,246.786 202.654 C 246.668 202.535,246.379 202.745,246.143 203.119 M69.340 204.812 C 69.091 206.016,68.946 207.063,69.017 207.140 C 69.249 207.390,70.051 203.961,69.920 203.282 C 69.851 202.921,69.590 203.609,69.340 204.812 M340.004 203.460 C 340.002 203.713,340.448 204.883,340.996 206.060 C 341.544 207.237,341.994 207.993,341.996 207.740 C 341.998 207.487,341.552 206.317,341.004 205.140 C 340.456 203.963,340.006 203.207,340.004 203.460 M49.062 205.000 C 49.196 205.880,49.372 206.675,49.453 206.767 C 49.756 207.110,49.529 204.968,49.181 204.200 C 48.929 203.642,48.893 203.885,49.062 205.000 M58.534 206.400 C 58.534 208.050,58.605 208.725,58.691 207.900 C 58.778 207.075,58.778 205.725,58.691 204.900 C 58.605 204.075,58.534 204.750,58.534 206.400 M59.701 205.000 C 59.705 205.880,59.787 206.193,59.883 205.695 C 59.979 205.198,59.975 204.478,59.875 204.095 C 59.775 203.713,59.696 204.120,59.701 205.000 M226.567 204.942 C 226.452 205.240,226.423 206.635,226.502 208.042 L 226.646 210.600 226.723 207.733 C 226.773 205.877,226.976 204.796,227.300 204.665 C 227.692 204.507,227.689 204.456,227.287 204.432 C 227.006 204.414,226.681 204.644,226.567 204.942 M86.528 207.200 C 86.528 208.630,86.601 209.215,86.689 208.500 C 86.778 207.785,86.778 206.615,86.689 205.900 C 86.601 205.185,86.528 205.770,86.528 207.200 M87.331 208.200 C 87.333 209.740,87.405 210.321,87.492 209.491 C 87.579 208.661,87.577 207.401,87.489 206.691 C 87.400 205.981,87.329 206.660,87.331 208.200 M188.177 217.800 C 188.177 224.180,188.232 226.734,188.299 223.476 C 188.367 220.217,188.366 214.997,188.299 211.876 C 188.231 208.754,188.176 211.420,188.177 217.800 M59.193 209.081 C 59.087 210.225,59.147 211.015,59.326 210.835 C 59.505 210.656,59.591 209.719,59.518 208.754 L 59.385 207.000 59.193 209.081 M96.101 208.600 C 96.105 209.480,96.187 209.793,96.283 209.295 C 96.379 208.798,96.375 208.078,96.275 207.695 C 96.175 207.313,96.096 207.720,96.101 208.600 M68.093 211.600 C 68.093 212.370,68.175 212.685,68.276 212.300 C 68.376 211.915,68.376 211.285,68.276 210.900 C 68.175 210.515,68.093 210.830,68.093 211.600 M215.714 212.200 C 215.717 213.300,215.795 213.703,215.887 213.095 C 215.979 212.486,215.977 211.586,215.882 211.095 C 215.787 210.603,215.711 211.100,215.714 212.200 M238.661 213.500 C 238.558 213.665,239.582 213.750,240.937 213.688 C 245.078 213.500,245.569 213.323,242.124 213.260 C 240.322 213.227,238.763 213.335,238.661 213.500 M226.887 214.200 C 226.891 214.640,227.032 215.540,227.200 216.200 C 227.474 217.278,227.506 217.298,227.513 216.400 C 227.517 215.850,227.376 214.950,227.200 214.400 C 226.949 213.616,226.881 213.573,226.887 214.200 M95.050 215.650 C 94.717 217.317,95.040 217.640,95.400 216.000 C 95.552 215.309,95.593 214.659,95.491 214.558 C 95.389 214.456,95.191 214.947,95.050 215.650 M50.493 216.000 C 50.493 216.770,50.575 217.085,50.676 216.700 C 50.776 216.315,50.776 215.685,50.676 215.300 C 50.575 214.915,50.493 215.230,50.493 216.000 M204.404 215.000 C 204.405 215.220,204.763 215.940,205.200 216.600 C 206.236 218.164,206.237 217.608,205.201 215.910 C 204.762 215.189,204.404 214.780,204.404 215.000 M255.693 216.800 C 255.693 217.570,255.775 217.885,255.876 217.500 C 255.976 217.115,255.976 216.485,255.876 216.100 C 255.775 215.715,255.693 216.030,255.693 216.800 M67.029 217.029 C 66.881 217.615,66.851 218.184,66.961 218.294 C 67.071 218.404,67.281 218.015,67.429 217.429 C 67.576 216.842,67.606 216.273,67.496 216.163 C 67.386 216.053,67.176 216.442,67.029 217.029 M51.062 219.000 C 51.196 219.880,51.372 220.675,51.453 220.767 C 51.756 221.110,51.529 218.968,51.181 218.200 C 50.929 217.642,50.893 217.885,51.062 219.000 M247.260 218.467 C 247.227 219.054,247.096 219.864,246.970 220.267 C 246.752 220.960,246.765 220.961,247.195 220.290 C 247.446 219.899,247.577 219.089,247.486 218.490 L 247.320 217.400 247.260 218.467 M237.200 219.519 C 237.200 219.768,236.622 220.653,235.915 221.486 C 234.763 222.843,234.746 222.896,235.751 222.000 C 237.017 220.872,237.780 219.646,237.432 219.299 C 237.305 219.171,237.200 219.270,237.200 219.519 M228.400 221.335 C 228.400 221.606,231.274 223.259,231.446 223.087 C 231.526 223.008,230.873 222.539,229.996 222.046 C 229.118 221.552,228.400 221.233,228.400 221.335 M94.101 223.000 C 94.105 223.880,94.187 224.193,94.283 223.695 C 94.379 223.198,94.375 222.478,94.275 222.095 C 94.175 221.713,94.096 222.120,94.101 223.000 M232.800 223.200 C 231.976 223.464,231.941 223.526,232.600 223.554 C 233.040 223.573,233.670 223.413,234.000 223.200 C 234.701 222.747,234.214 222.747,232.800 223.200 M219.239 225.776 C 219.701 226.559,220.156 227.200,220.250 227.200 C 220.534 227.200,219.236 224.869,218.802 224.601 C 218.580 224.464,218.777 224.993,219.239 225.776 M348.026 225.200 C 348.033 225.787,349.550 228.849,349.583 228.344 C 349.592 228.203,349.244 227.303,348.809 226.344 C 348.374 225.385,348.021 224.870,348.026 225.200 M259.564 228.266 C 260.752 229.850,263.784 232.000,264.831 232.000 C 265.099 232.000,264.437 231.541,263.360 230.980 C 262.282 230.419,260.706 229.204,259.858 228.280 L 258.315 226.600 259.564 228.266 M278.000 228.329 C 277.450 228.407,276.640 228.793,276.200 229.188 C 275.760 229.583,274.501 230.377,273.403 230.953 C 272.305 231.529,271.607 232.000,271.853 232.000 C 272.491 232.000,275.832 230.085,276.411 229.387 C 276.989 228.691,279.200 228.595,279.200 229.267 C 279.200 229.523,279.306 229.627,279.437 229.497 C 279.938 228.996,278.952 228.195,278.000 228.329 M52.432 229.067 C 52.289 231.180,54.175 232.000,59.180 232.000 C 63.261 232.000,64.800 231.437,64.800 229.946 C 64.800 229.696,64.427 229.966,63.971 230.546 C 62.327 232.635,53.687 231.933,52.846 229.642 C 52.635 229.069,52.449 228.810,52.432 229.067 M92.536 230.222 C 92.058 230.954,91.900 231.460,92.182 231.352 C 92.660 231.168,93.766 229.215,93.515 228.996 C 93.452 228.941,93.011 229.493,92.536 230.222 M210.949 230.082 C 211.039 230.816,210.876 231.219,210.441 231.336 C 209.883 231.485,209.888 231.513,210.476 231.554 C 211.371 231.615,211.544 231.212,211.144 230.000 L 210.815 229.000 210.949 230.082 M80.809 229.871 C 80.781 231.343,82.814 232.002,87.154 231.926 L 91.400 231.852 86.876 231.626 C 82.650 231.415,82.301 231.334,81.585 230.400 C 81.163 229.850,80.814 229.612,80.809 229.871 M287.798 230.493 C 287.197 231.863,281.360 232.082,280.300 230.775 C 279.915 230.300,279.600 230.083,279.600 230.294 C 279.600 232.070,286.322 232.834,287.779 231.223 C 288.166 230.796,288.418 230.253,288.339 230.016 C 288.260 229.780,288.017 229.995,287.798 230.493 M333.508 230.710 C 333.188 231.934,325.132 232.102,324.432 230.900 C 324.208 230.515,324.019 230.389,324.012 230.620 C 323.981 231.697,325.084 232.000,329.031 232.000 C 333.167 232.000,334.333 231.599,333.908 230.324 C 333.816 230.047,333.636 230.221,333.508 230.710 M359.512 230.694 C 359.302 231.495,358.991 231.579,355.742 231.702 L 352.200 231.835 355.651 231.918 C 359.166 232.002,360.323 231.568,359.908 230.324 C 359.815 230.046,359.638 230.212,359.512 230.694 M136.500 231.894 C 137.545 231.976,139.255 231.976,140.300 231.894 C 141.345 231.812,140.490 231.744,138.400 231.744 C 136.310 231.744,135.455 231.812,136.500 231.894 M180.713 231.895 C 181.876 231.976,183.676 231.976,184.713 231.893 C 185.751 231.811,184.800 231.745,182.600 231.746 C 180.400 231.747,179.551 231.814,180.713 231.895 M203.500 231.895 C 204.655 231.976,206.545 231.976,207.700 231.895 C 208.855 231.814,207.910 231.748,205.600 231.748 C 203.290 231.748,202.345 231.814,203.500 231.895 M230.300 232.293 C 231.235 232.377,232.765 232.377,233.700 232.293 C 234.635 232.209,233.870 232.140,232.000 232.140 C 230.130 232.140,229.365 232.209,230.300 232.293 M267.507 232.290 C 268.226 232.379,269.306 232.377,269.907 232.286 C 270.508 232.195,269.920 232.122,268.600 232.124 C 267.280 232.126,266.788 232.201,267.507 232.290 " stroke="none" fill="#7e8ce4" fill-rule="evenodd"></path><path id="path4" d="M113.333 150.015 C 108.962 151.362,108.268 159.738,112.309 162.368 C 117.497 165.745,122.545 162.536,122.444 155.925 C 122.367 150.886,118.547 148.408,113.333 150.015 M120.353 151.677 C 121.815 153.242,122.262 155.812,121.614 158.933 C 120.892 162.409,116.848 163.814,113.163 161.869 C 109.856 160.124,109.076 154.119,111.839 151.674 C 114.006 149.755,118.558 149.757,120.353 151.677 M177.689 153.423 L 176.800 154.045 176.800 192.200 L 176.800 230.355 177.689 230.977 C 178.360 231.448,179.636 231.600,182.899 231.600 C 188.374 231.600,187.995 232.601,188.018 218.074 C 188.031 209.656,188.173 206.280,188.550 205.400 L 189.063 204.200 189.962 206.595 C 190.456 207.912,191.003 209.172,191.178 209.395 C 191.353 209.618,191.726 210.520,192.007 211.400 C 192.288 212.280,192.851 213.627,193.259 214.394 C 193.666 215.161,194.000 215.968,194.000 216.188 C 194.000 216.408,194.426 217.491,194.946 218.594 C 195.466 219.697,196.382 221.770,196.981 223.200 C 197.580 224.630,198.702 227.105,199.474 228.700 L 200.878 231.600 205.139 231.595 C 211.766 231.586,212.013 231.252,209.419 225.800 C 208.896 224.700,207.902 222.540,207.210 221.000 C 206.518 219.460,205.610 217.480,205.192 216.600 C 201.533 208.892,198.000 200.332,198.000 199.174 C 198.000 197.900,200.180 193.174,208.082 177.312 C 210.691 172.076,210.647 172.000,205.005 172.000 C 200.570 172.000,199.162 172.551,198.585 174.510 C 198.344 175.328,197.080 178.202,195.200 182.200 C 194.786 183.080,193.885 185.060,193.198 186.600 C 192.510 188.140,191.524 190.300,191.006 191.400 C 190.489 192.500,189.862 193.922,189.613 194.561 C 188.407 197.660,188.204 195.124,188.000 174.480 C 187.890 163.326,187.646 153.885,187.457 153.500 C 186.980 152.525,179.061 152.462,177.689 153.423 M278.223 153.689 C 277.702 154.432,277.599 156.126,277.594 163.989 C 277.587 175.130,277.687 174.827,274.571 173.108 C 267.863 169.408,260.364 172.155,257.360 179.413 C 254.735 185.758,254.801 216.771,257.456 223.765 C 260.664 232.218,269.857 234.878,276.200 229.188 C 277.730 227.815,278.909 228.015,279.800 229.798 L 280.600 231.400 283.988 231.400 C 288.846 231.400,288.387 235.505,288.394 191.989 C 288.401 148.063,289.053 152.800,283.000 152.800 C 279.160 152.800,278.798 152.867,278.223 153.689 M187.234 154.441 C 187.428 154.748,187.591 164.107,187.594 175.238 C 187.600 194.689,187.630 195.503,188.369 196.172 C 189.259 196.978,190.076 196.122,190.634 193.800 C 190.792 193.140,191.234 192.197,191.616 191.703 C 191.997 191.210,192.425 190.193,192.565 189.444 C 192.706 188.694,193.085 187.861,193.408 187.594 C 193.730 187.326,194.193 186.369,194.436 185.467 C 194.678 184.566,195.207 183.408,195.611 182.895 C 196.014 182.382,196.471 181.386,196.624 180.681 C 196.778 179.977,197.228 178.987,197.624 178.481 C 198.021 177.976,198.471 176.988,198.625 176.285 C 199.391 172.801,203.595 171.284,208.697 172.651 L 209.595 172.892 208.633 174.746 C 208.104 175.766,207.477 177.050,207.239 177.600 C 207.001 178.150,206.629 178.870,206.413 179.200 C 206.196 179.530,205.749 180.430,205.418 181.200 C 205.087 181.970,204.646 182.870,204.437 183.200 C 204.229 183.530,202.952 186.140,201.600 189.000 C 200.248 191.860,198.974 194.470,198.770 194.800 C 197.129 197.449,197.027 200.578,198.486 203.441 C 200.272 206.944,201.560 209.779,201.830 210.800 C 201.976 211.350,202.321 212.070,202.597 212.400 C 202.873 212.730,203.324 213.720,203.600 214.600 C 203.876 215.480,204.326 216.470,204.600 216.800 C 204.874 217.130,205.329 218.116,205.610 218.990 C 205.892 219.865,206.454 221.125,206.859 221.790 C 207.265 222.456,207.598 223.290,207.599 223.644 C 207.599 223.998,208.023 224.912,208.540 225.673 C 211.019 229.327,210.255 230.802,205.886 230.795 C 201.623 230.787,200.967 230.582,200.367 229.062 C 200.093 228.368,199.645 227.530,199.371 227.200 C 199.098 226.870,198.661 225.790,198.400 224.800 C 198.139 223.810,197.689 222.730,197.400 222.400 C 197.111 222.070,196.673 221.043,196.427 220.118 C 196.180 219.193,195.727 218.184,195.418 217.875 C 195.110 217.567,194.734 216.658,194.584 215.854 C 194.433 215.050,193.985 213.980,193.588 213.475 C 193.191 212.970,192.741 211.890,192.588 211.075 C 192.435 210.260,191.980 209.174,191.577 208.662 C 191.174 208.149,190.634 206.896,190.378 205.877 C 189.804 203.597,189.128 202.923,188.353 203.856 C 187.918 204.379,187.757 207.227,187.600 217.228 C 187.490 224.217,187.258 230.076,187.084 230.250 C 186.349 230.983,179.208 230.931,178.385 230.186 C 177.225 229.137,177.143 155.571,178.300 154.285 C 179.176 153.311,186.601 153.441,187.234 154.441 M287.357 154.233 C 287.675 155.060,287.675 229.340,287.357 230.167 C 287.166 230.666,286.483 230.800,284.135 230.800 L 281.155 230.800 280.326 228.900 C 279.869 227.855,279.431 226.927,279.352 226.837 C 279.096 226.549,276.053 228.084,275.855 228.602 C 275.749 228.877,274.461 229.688,272.993 230.403 C 266.552 233.541,260.554 230.449,257.721 222.532 L 256.600 219.400 256.600 201.200 C 256.600 183.329,256.616 182.967,257.471 181.186 C 257.950 180.188,258.474 178.838,258.635 178.186 C 258.797 177.534,259.260 176.765,259.665 176.477 C 260.069 176.190,260.400 175.695,260.400 175.377 C 260.400 175.060,260.588 174.800,260.818 174.800 C 261.048 174.800,261.723 174.305,262.318 173.700 C 263.660 172.336,272.651 171.968,273.683 173.235 C 273.967 173.585,274.864 174.247,275.675 174.707 C 278.100 176.082,278.182 175.766,278.320 164.456 C 278.397 158.235,278.598 154.443,278.869 154.116 C 279.550 153.296,287.037 153.398,287.357 154.233 M44.129 157.861 C 42.573 158.195,42.392 158.828,43.009 161.776 C 43.324 163.282,43.765 166.243,43.988 168.357 C 44.211 170.471,44.581 173.190,44.810 174.400 C 45.039 175.610,45.415 178.130,45.647 180.000 C 45.879 181.870,46.334 185.020,46.658 187.000 C 46.982 188.980,47.426 191.950,47.644 193.600 C 47.862 195.250,48.317 198.400,48.656 200.600 C 49.346 205.088,49.763 208.134,50.409 213.400 C 50.652 215.380,51.010 217.540,51.204 218.200 C 51.399 218.860,51.750 221.407,51.986 223.861 C 52.704 231.335,52.950 231.600,59.157 231.600 C 64.415 231.600,65.130 230.710,66.019 223.059 C 66.252 221.046,66.709 218.455,67.033 217.300 C 67.357 216.145,67.807 213.715,68.031 211.900 C 68.256 210.085,68.697 207.601,69.010 206.379 C 69.324 205.158,69.846 202.368,70.171 200.179 C 70.495 197.991,71.039 194.580,71.379 192.600 C 71.719 190.620,72.011 188.280,72.029 187.400 C 72.047 186.520,72.288 185.080,72.564 184.200 L 73.067 182.600 73.509 184.200 C 73.753 185.080,74.157 187.690,74.407 190.000 C 74.657 192.310,75.022 194.740,75.218 195.400 C 75.413 196.060,75.765 198.220,75.999 200.200 C 76.233 202.180,76.773 205.510,77.199 207.600 C 77.625 209.690,78.262 213.200,78.615 215.400 C 78.968 217.600,79.435 220.480,79.654 221.800 C 79.873 223.120,80.235 225.404,80.458 226.876 C 81.107 231.154,81.736 231.600,87.119 231.600 C 93.000 231.600,93.267 231.296,93.991 223.793 C 94.246 221.157,94.709 217.740,95.022 216.200 C 95.334 214.660,95.775 211.510,96.002 209.200 C 96.229 206.890,96.755 203.110,97.171 200.800 C 97.588 198.490,98.040 195.228,98.176 193.550 C 98.313 191.873,98.760 188.723,99.171 186.550 C 99.581 184.378,100.040 181.070,100.190 179.200 C 100.340 177.330,100.720 174.569,101.034 173.064 C 101.468 170.979,102.794 160.241,102.799 158.764 C 102.801 158.084,100.329 157.600,96.849 157.600 C 92.170 157.600,92.172 157.598,91.804 162.800 C 91.672 164.670,91.403 167.010,91.207 168.000 C 91.011 168.990,90.657 172.050,90.420 174.800 C 89.700 183.139,89.261 187.568,88.648 192.675 C 88.325 195.356,87.948 200.306,87.809 203.675 C 87.423 213.005,87.015 213.998,86.408 207.086 C 86.203 204.761,85.677 201.361,85.237 199.529 C 84.798 197.698,84.255 194.716,84.031 192.902 C 83.806 191.088,83.361 188.568,83.040 187.302 C 82.720 186.036,82.261 183.338,82.021 181.307 C 81.781 179.275,81.416 177.168,81.209 176.623 C 81.002 176.078,80.547 173.510,80.199 170.916 C 79.851 168.322,79.392 165.674,79.180 165.030 C 78.967 164.387,78.605 162.684,78.375 161.246 C 77.822 157.782,77.625 157.599,74.451 157.604 C 68.637 157.614,68.621 157.626,67.817 162.600 C 67.532 164.360,67.018 167.240,66.674 169.000 C 66.330 170.760,65.854 173.280,65.616 174.600 C 65.378 175.920,64.750 179.340,64.220 182.200 C 63.690 185.060,62.959 189.110,62.595 191.200 C 62.231 193.290,61.571 196.620,61.128 198.600 C 60.685 200.580,60.139 204.000,59.915 206.200 C 59.180 213.414,58.654 212.293,58.225 202.600 C 58.079 199.300,57.618 194.350,57.201 191.600 C 56.784 188.850,56.255 184.204,56.026 181.276 C 55.797 178.347,55.338 174.297,55.006 172.276 C 54.675 170.254,54.252 166.475,54.065 163.877 C 53.632 157.847,53.610 157.821,48.686 157.737 C 46.659 157.702,44.608 157.758,44.129 157.861 M300.691 158.299 C 299.783 159.303,299.618 228.625,300.520 230.400 C 301.118 231.578,309.784 231.979,310.881 230.880 C 311.778 229.982,311.841 159.099,310.946 158.354 C 309.779 157.384,301.559 157.340,300.691 158.299 M324.480 158.080 C 323.844 158.716,323.780 229.641,324.414 230.826 C 324.783 231.516,325.285 231.600,329.024 231.600 L 333.220 231.600 333.639 230.500 C 333.915 229.774,334.025 222.694,333.961 209.688 C 333.866 190.288,333.960 188.634,335.116 189.348 C 335.328 189.479,335.717 190.444,335.981 191.493 C 336.244 192.542,336.707 193.940,337.009 194.600 C 337.311 195.260,337.906 196.790,338.333 198.000 C 338.759 199.210,339.558 201.370,340.108 202.800 C 340.658 204.230,341.329 206.030,341.600 206.800 C 341.870 207.570,342.444 209.100,342.876 210.200 C 343.308 211.300,343.919 213.038,344.235 214.063 C 344.551 215.088,345.076 216.438,345.402 217.063 C 345.728 217.688,345.996 218.447,345.998 218.750 C 345.999 219.052,346.432 220.312,346.960 221.550 C 347.487 222.787,348.518 225.395,349.250 227.344 C 350.811 231.504,350.960 231.600,355.836 231.600 C 359.100 231.600,359.234 231.564,359.610 230.574 C 360.161 229.123,360.138 159.406,359.586 158.374 C 359.087 157.441,351.368 157.192,350.480 158.080 C 350.119 158.441,350.000 163.725,350.000 179.404 C 350.000 202.499,349.794 204.610,348.065 199.184 C 346.890 195.497,345.645 191.993,345.015 190.600 C 344.716 189.940,344.261 188.606,344.003 187.636 C 343.746 186.666,343.297 185.496,343.007 185.036 C 342.716 184.576,342.347 183.570,342.186 182.800 C 342.024 182.030,341.569 180.680,341.174 179.800 C 340.779 178.920,340.186 177.390,339.858 176.400 C 338.747 173.056,337.574 169.804,337.188 169.000 C 336.815 168.223,335.388 164.136,334.161 160.332 C 333.682 158.845,333.305 158.376,332.320 158.032 C 330.622 157.440,325.086 157.474,324.480 158.080 M52.138 158.776 C 53.042 159.120,53.148 159.422,53.364 162.276 C 54.008 170.787,54.465 175.229,54.821 176.452 C 55.037 177.194,55.400 180.590,55.628 184.000 C 55.855 187.410,56.312 191.460,56.644 193.000 C 56.975 194.540,57.425 199.310,57.644 203.600 C 57.927 209.170,58.195 211.556,58.581 211.946 C 59.462 212.837,60.272 211.025,60.543 207.558 C 60.673 205.885,61.049 203.485,61.377 202.225 C 61.705 200.965,62.178 198.037,62.427 195.719 C 62.677 193.401,63.131 190.906,63.436 190.175 C 63.741 189.444,64.180 187.081,64.412 184.923 C 64.643 182.765,65.094 180.323,65.415 179.495 C 65.735 178.667,66.185 176.237,66.415 174.095 C 66.644 171.953,67.097 169.517,67.420 168.683 C 67.743 167.849,68.205 165.329,68.446 163.083 C 68.980 158.124,68.463 158.600,73.319 158.600 L 77.371 158.600 77.830 162.000 C 78.082 163.870,78.561 166.210,78.893 167.200 C 79.225 168.190,79.620 170.580,79.770 172.511 C 79.921 174.443,80.306 176.768,80.627 177.678 C 80.949 178.588,81.394 181.058,81.617 183.166 C 81.839 185.275,82.301 187.888,82.643 188.972 C 82.984 190.057,83.424 192.495,83.620 194.390 C 83.816 196.285,84.264 199.178,84.616 200.818 C 84.968 202.458,85.421 205.489,85.622 207.553 C 86.384 215.343,88.384 213.705,88.428 205.256 C 88.457 199.824,88.631 197.773,89.771 189.400 C 90.101 186.980,90.538 182.480,90.742 179.400 C 90.946 176.320,91.306 172.990,91.541 172.000 C 91.777 171.010,92.076 168.130,92.206 165.600 C 92.336 163.070,92.531 160.415,92.639 159.700 L 92.836 158.400 97.195 158.400 C 99.592 158.400,101.659 158.571,101.788 158.781 C 102.159 159.381,101.313 168.343,100.635 171.000 C 100.298 172.320,99.838 175.704,99.614 178.521 C 99.390 181.337,99.032 183.967,98.818 184.366 C 98.605 184.765,98.228 187.140,97.980 189.645 C 97.531 194.193,97.204 196.426,96.434 200.200 C 96.209 201.300,95.850 204.270,95.634 206.800 C 95.419 209.330,94.968 212.480,94.633 213.800 C 94.297 215.120,93.842 218.458,93.622 221.217 C 93.243 225.976,92.532 229.077,91.546 230.265 C 91.229 230.647,89.943 230.800,87.047 230.800 C 81.747 230.800,81.228 230.105,80.407 221.898 C 80.168 219.505,79.712 216.884,79.394 216.074 C 79.076 215.263,78.637 212.672,78.419 210.315 C 78.201 207.958,77.757 205.393,77.432 204.616 C 77.108 203.838,76.645 201.087,76.405 198.501 C 76.165 195.916,75.782 193.080,75.554 192.200 C 75.325 191.320,74.914 188.800,74.638 186.600 C 74.363 184.400,73.904 182.163,73.617 181.629 L 73.096 180.659 72.529 181.742 C 72.217 182.338,71.785 184.395,71.570 186.313 C 71.355 188.231,71.087 190.098,70.975 190.461 C 70.627 191.589,70.009 195.635,69.607 199.417 C 69.396 201.406,68.960 203.780,68.638 204.691 C 68.317 205.603,67.936 207.666,67.791 209.275 C 67.647 210.884,67.191 213.460,66.776 215.000 C 66.362 216.540,65.843 219.404,65.622 221.365 C 65.239 224.775,64.446 227.968,63.504 229.900 C 63.091 230.746,62.819 230.800,58.987 230.800 L 54.909 230.800 53.886 229.300 C 52.984 227.978,52.813 227.152,52.444 222.352 C 52.214 219.356,51.756 216.111,51.427 215.141 C 51.098 214.171,50.711 211.583,50.567 209.389 C 50.424 207.195,50.042 204.230,49.719 202.800 C 49.395 201.370,48.964 198.670,48.760 196.800 C 48.050 190.289,47.514 186.794,47.196 186.597 C 47.019 186.488,46.760 184.644,46.619 182.499 C 46.317 177.891,45.636 173.162,45.193 172.600 C 45.020 172.380,44.685 169.770,44.448 166.800 C 44.212 163.830,43.849 160.825,43.643 160.123 C 43.334 159.068,43.385 158.815,43.934 158.669 C 45.225 158.327,51.160 158.405,52.138 158.776 M309.900 158.652 L 310.800 158.893 310.800 193.921 L 310.800 228.948 309.930 229.874 C 309.056 230.805,303.287 231.269,301.433 230.557 C 300.772 230.304,300.411 159.322,301.067 158.667 C 301.398 158.335,308.672 158.323,309.900 158.652 M332.275 158.646 C 332.946 158.826,333.254 159.361,333.592 160.935 C 333.834 162.065,334.288 163.380,334.601 163.858 C 334.914 164.335,335.381 165.597,335.639 166.663 C 335.897 167.728,336.421 169.140,336.805 169.800 C 337.189 170.460,337.625 171.688,337.775 172.529 C 337.925 173.370,338.396 174.630,338.822 175.329 C 339.248 176.028,339.599 176.960,339.602 177.400 C 339.605 177.840,340.050 179.100,340.591 180.200 C 341.132 181.300,341.582 182.560,341.591 183.000 C 341.600 183.440,342.050 184.700,342.591 185.800 C 343.132 186.900,343.581 188.178,343.587 188.640 C 343.594 189.103,344.022 190.274,344.537 191.244 C 345.053 192.213,345.594 193.645,345.741 194.426 C 345.887 195.206,346.351 196.520,346.772 197.346 C 347.193 198.171,347.659 199.563,347.807 200.439 C 347.997 201.567,348.429 202.290,349.283 202.916 C 349.947 203.402,350.638 204.160,350.818 204.600 C 350.998 205.040,351.023 203.330,350.873 200.800 C 350.723 198.270,350.600 187.740,350.600 177.400 L 350.600 158.600 355.000 158.600 L 359.400 158.600 359.502 194.069 C 359.618 234.389,359.953 230.803,356.071 230.796 C 351.524 230.787,350.931 230.542,350.406 228.453 C 350.150 227.434,349.706 226.330,349.421 226.000 C 349.135 225.670,348.683 224.464,348.416 223.320 C 348.148 222.176,347.690 221.040,347.396 220.797 C 347.103 220.553,346.741 219.599,346.593 218.677 C 346.445 217.755,345.990 216.420,345.582 215.712 C 345.174 215.003,344.725 213.743,344.583 212.912 C 344.441 212.080,344.018 210.950,343.642 210.400 C 343.267 209.850,342.738 208.418,342.468 207.218 C 342.198 206.019,341.735 204.759,341.439 204.418 C 341.144 204.078,340.679 202.848,340.407 201.685 C 340.136 200.522,339.682 199.339,339.400 199.057 C 339.118 198.775,338.677 197.535,338.421 196.303 C 338.165 195.070,337.705 193.853,337.398 193.598 C 337.090 193.343,336.717 192.319,336.567 191.322 C 336.401 190.214,335.872 189.021,335.205 188.254 C 334.605 187.564,333.835 186.460,333.494 185.801 L 332.874 184.601 332.572 186.201 C 332.396 187.134,332.482 189.133,332.779 191.000 C 333.669 196.589,333.869 229.274,333.019 230.124 C 331.854 231.289,324.975 231.105,324.652 229.900 C 324.320 228.662,324.335 158.999,324.667 158.667 C 324.995 158.339,331.069 158.322,332.275 158.646 M150.143 171.960 C 148.564 172.364,146.244 173.785,144.299 175.540 L 142.799 176.894 142.199 175.460 C 141.870 174.671,141.600 173.745,141.600 173.403 C 141.600 172.121,134.668 171.446,132.876 172.553 C 132.368 172.867,132.148 227.039,132.644 229.520 C 132.989 231.245,134.290 231.653,139.009 231.515 C 144.480 231.356,143.987 233.863,143.994 206.178 L 144.000 182.957 145.326 181.672 C 147.482 179.582,150.695 179.213,152.814 180.811 L 153.800 181.554 154.000 206.009 C 154.195 229.881,154.219 230.479,155.000 231.059 C 156.039 231.831,164.077 231.686,164.881 230.880 C 165.915 229.844,165.819 183.844,164.775 180.059 C 162.836 173.032,157.497 170.077,150.143 171.960 M227.089 172.011 C 222.269 173.227,218.831 177.596,216.553 185.400 C 215.752 188.147,215.365 205.214,215.937 212.600 C 216.989 226.177,221.757 231.805,232.200 231.796 C 241.951 231.787,247.002 226.797,247.328 216.850 C 247.420 214.036,246.742 213.614,242.114 213.606 C 238.369 213.599,238.000 213.885,238.000 216.787 C 238.000 219.804,235.922 222.803,233.390 223.438 C 232.185 223.741,228.817 222.107,228.368 221.003 C 227.604 219.124,226.829 214.263,226.568 209.711 L 226.288 204.823 227.370 204.411 C 227.986 204.177,232.057 204.000,236.826 204.000 C 246.634 204.000,246.366 204.109,247.244 199.756 C 249.582 188.163,246.781 176.968,240.610 173.238 C 238.158 171.756,230.759 171.084,227.089 172.011 M110.439 172.553 C 109.492 173.694,110.035 230.342,111.000 231.059 C 112.039 231.831,120.077 231.686,120.881 230.880 C 121.295 230.466,121.422 224.518,121.508 201.573 L 121.615 172.786 120.582 172.393 C 118.927 171.764,110.990 171.889,110.439 172.553 M119.550 172.650 L 120.800 172.900 120.800 200.924 L 120.800 228.948 119.930 229.874 C 118.936 230.933,113.773 231.226,111.819 230.336 L 110.800 229.872 110.800 201.362 L 110.800 172.853 111.900 172.687 C 113.747 172.407,118.227 172.385,119.550 172.650 M139.541 172.648 C 140.550 172.850,140.828 173.140,141.027 174.201 C 141.161 174.919,141.631 176.098,142.072 176.822 L 142.872 178.137 144.536 176.449 C 149.067 171.851,157.266 170.660,160.692 174.102 C 164.658 178.085,164.503 176.886,164.687 205.152 L 164.841 228.905 163.951 229.852 C 162.939 230.929,157.800 231.239,155.831 230.341 L 154.824 229.882 154.712 205.750 L 154.600 181.618 153.547 180.565 C 151.433 178.451,147.260 178.862,144.771 181.429 L 143.400 182.844 143.285 206.438 L 143.170 230.031 142.159 230.416 C 140.116 231.192,135.150 230.892,134.126 229.930 L 133.200 229.061 133.200 200.958 L 133.200 172.856 134.100 172.682 C 135.571 172.399,138.212 172.382,139.541 172.648 M240.000 173.593 C 242.349 175.259,243.251 176.132,244.346 177.800 C 247.343 182.365,248.144 192.678,246.117 200.600 L 245.400 203.400 236.232 203.508 C 225.069 203.639,226.000 203.049,226.000 209.984 C 226.000 222.254,230.777 227.829,236.514 222.257 C 238.114 220.703,238.342 220.076,238.496 216.800 L 238.600 214.600 241.595 214.481 C 246.085 214.302,246.400 214.445,246.400 216.675 C 246.400 223.212,243.334 229.010,239.451 229.818 C 238.763 229.961,237.750 230.376,237.200 230.739 C 235.406 231.925,228.749 231.665,225.925 230.300 C 224.673 229.695,223.562 229.200,223.456 229.200 C 223.007 229.200,220.943 226.797,220.237 225.453 C 219.817 224.654,219.335 224.000,219.165 224.000 C 218.996 224.000,218.647 222.965,218.392 221.700 C 218.136 220.435,217.628 218.950,217.263 218.400 C 216.674 217.512,216.600 215.660,216.600 201.800 C 216.600 187.940,216.674 186.088,217.263 185.200 C 217.628 184.650,218.136 183.165,218.392 181.900 C 218.647 180.635,218.994 179.600,219.161 179.600 C 219.328 179.600,219.711 179.105,220.012 178.500 C 220.699 177.119,223.215 174.400,223.806 174.400 C 224.050 174.400,224.606 174.067,225.043 173.661 C 226.311 172.479,226.696 172.422,232.800 172.513 C 238.262 172.595,238.682 172.658,240.000 173.593 M229.320 179.983 C 228.400 180.544,227.912 181.246,227.581 182.482 C 227.329 183.427,226.930 184.434,226.695 184.721 C 226.460 185.007,226.185 187.531,226.084 190.330 C 225.849 196.841,225.611 196.600,232.294 196.600 C 238.593 196.600,238.400 196.802,238.400 190.212 C 238.400 181.359,234.419 176.874,229.320 179.983 M269.742 179.454 C 268.602 179.707,267.911 180.577,266.867 183.074 C 265.593 186.122,265.536 216.784,266.800 219.400 C 267.225 220.280,267.579 221.209,267.586 221.465 C 267.608 222.203,270.858 224.400,271.927 224.400 C 273.358 224.400,276.075 222.465,277.314 220.562 L 278.400 218.896 278.400 202.098 C 278.400 183.066,278.449 183.598,276.469 181.281 C 274.963 179.518,272.486 178.845,269.742 179.454 M234.987 180.555 C 237.080 181.926,238.781 193.859,237.120 195.520 C 236.510 196.130,228.276 196.176,227.155 195.576 C 225.957 194.935,226.799 186.015,228.443 181.928 C 229.260 179.897,232.837 179.146,234.987 180.555 M275.630 181.221 C 277.617 183.808,277.600 183.626,277.600 201.738 C 277.600 220.970,277.667 220.537,274.350 222.632 C 271.042 224.720,268.472 222.957,267.165 217.704 C 265.106 209.426,266.538 181.988,269.112 180.403 C 270.450 179.579,274.786 180.123,275.630 181.221 " stroke="none" fill="#8c9ce4" fill-rule="evenodd"></path></g></svg>